<svg xmlns="http://www.w3.org/2000/svg" version="1.1" xmlns:xlink="http://www.w3.org/1999/xlink" xmlns:svgjs="http://svgjs.dev/svgjs" width="2000" height="712" viewBox="0 0 2000 712"><g transform="matrix(1,0,0,1,-1.2121212121210192,0.8962387173730235)"><svg viewBox="0 0 396 141" data-background-color="#ffffff" preserveAspectRatio="xMidYMid meet" height="712" width="2000" xmlns="http://www.w3.org/2000/svg" xmlns:xlink="http://www.w3.org/1999/xlink"><g id="tight-bounds" transform="matrix(1,0,0,1,0.23999999999995225,-0.1773775143245757)"><svg viewBox="0 0 395.52 141.35486298949542" height="141.35486298949542" width="395.52"><g><svg viewBox="0 0 683.9346695442974 244.43135999999998" height="141.35486298949542" width="395.52"><g transform="matrix(1,0,0,1,288.41466954429745,84.95368848515098)"><svg viewBox="0 0 395.52 74.52398302969803" height="74.52398302969803" width="395.52"><g id="textblocktransform"><svg viewBox="0 0 395.52 74.52398302969803" height="74.52398302969803" width="395.52" id="textblock"><g><svg viewBox="0 0 395.52 74.52398302969803" height="74.52398302969803" width="395.52"><g transform="matrix(1,0,0,1,0,0)"><svg width="395.52" viewBox="1.9 -37.5 200.32999999999998 37.75" height="74.52398302969803" data-palette-color="#111111"><path d="M4.55-33.95L1.9-34.25 1.95-35 8.55-35 20.5-9.65 32.25-35 38.85-35Q38.85-34.9 38.9-34.65 38.95-34.4 38.9-34.25L38.9-34.25 36.25-33.95Q35.75-33.9 35.65-33.3L35.65-33.3 35.65-0.95 39.35-0.75Q39.35-0.7 39.3 0L39.3 0 29.25 0.05 29.3-0.65 31.9-1Q32.4-1.05 32.5-1.6L32.5-1.6 32.5-33.2 21.1-8.55 20.1-6.55 18.95-6.55 6.3-33.25 6.3-1.05 12-0.75Q12-0.7 11.95 0L11.95 0 1.9 0.05 1.95-0.65 4.55-1Q5.05-1.05 5.15-1.65L5.15-1.65 5.15-33.3Q5.05-33.9 4.55-33.95L4.55-33.95ZM48.65-22.95L48.65-22.95 48.65-1 52.4-0.75Q52.4-0.7 52.35 0L52.35 0 42.35 0.05Q42.35-0.4 42.4-0.65L42.4-0.65 45-1Q45.3-1 45.4-1.45L45.4-1.45 45.4-23.4Q45.3-23.75 45.1-23.75L45.1-23.75 42.1-23.85 42.15-24.55Q44.85-25 46.25-25 47.65-25 48.15-24.35 48.65-23.7 48.65-22.95ZM46.95-31.7Q45.95-31.7 45.4-32.33 44.85-32.95 44.85-33.98 44.85-35 45.42-35.63 46-36.25 47-36.25 48-36.25 48.62-35.63 49.25-35 49.25-33.93 49.25-32.85 48.6-32.27 47.95-31.7 46.95-31.7ZM65.7 0L55.65 0.05 55.7-0.65 58.3-1Q58.75-1.05 58.75-1.7L58.75-1.7 58.75-23.35Q58.65-23.75 58.45-23.75L58.45-23.75 55.4-23.85 55.45-24.55Q58.6-25 59.7-25L59.7-25Q61.7-25 61.95-23.25L61.95-23.25 62-23.25 62-22.2Q66.1-25 69.85-25.15L69.85-25.15Q73.5-25.15 75.4-23.7L75.4-23.7Q76.25-23.05 76.92-21.68 77.6-20.3 77.6-18.4L77.6-18.4 77.6-1 81.35-0.75Q81.35-0.7 81.3 0L81.3 0 71.3 0.05Q71.3-0.4 71.35-0.65L71.35-0.65 73.95-1Q74.35-1.05 74.35-1.7L74.35-1.7 74.35-17.15Q74.35-19.15 73.82-20.55 73.3-21.95 72.65-22.6 72-23.25 71.05-23.6L71.05-23.6Q69.95-24 68.75-24L68.75-24Q65.75-23.95 62-21.65L62-21.65 62-1 65.75-0.75Q65.75-0.7 65.7 0L65.7 0ZM105.54-35.45L105.54-35.45 105.54-2.6Q105.54-1.05 106.34-1.05L106.34-1.05 109.34-0.9 109.29-0.15Q106.89 0.25 104.29 0.25L104.29 0.25Q103.74 0.2 103.12-0.3 102.49-0.8 102.39-1.6L102.39-1.6Q99.54 0.2 95.79 0.2L95.79 0.2Q92.14 0.2 89.04-1.85L89.04-1.85Q87.29-3 86.22-5.48 85.14-7.95 85.14-11.5L85.14-11.5Q85.14-18.05 88.49-21.5L88.49-21.5Q92.04-25.2 96.59-25.2L96.59-25.2Q99.39-25.2 102.29-23.75L102.29-23.75 102.29-35.7Q102.29-36.25 101.99-36.25L101.99-36.25 98.94-36.35 98.99-37.05Q102.14-37.5 103.32-37.5 104.49-37.5 105.02-36.85 105.54-36.2 105.54-35.45ZM96.44-0.7L96.44-0.7Q99.49-0.7 102.29-2.05L102.29-2.05 102.29-22.95Q100.09-24.3 97.94-24.3L97.94-24.3Q93.64-24.3 91.02-21 88.39-17.7 88.39-11.55L88.39-11.55Q88.39-0.7 96.44-0.7ZM129.14-14.4L138.14-14.45Q138.14-14.4 138.19-13.7L138.19-13.7 136.19-13.45 136.19-1.05Q135.34-0.75 131.67-0.28 127.99 0.2 125.69 0.2 123.39 0.2 121.69-0.13 119.99-0.45 118.09-1.5 116.19-2.55 114.87-4.28 113.54-6 112.64-9 111.74-12 111.74-16L111.74-16Q111.74-24.85 115.79-29.8L115.79-29.8Q120.04-35 127.39-35L127.39-35Q129.64-35 132.27-34.58 134.89-34.15 135.99-33.75L135.99-33.75 136.59-26.55 135.64-26.2 134.99-31.55Q130.94-34.3 127.39-34.3L127.39-34.3Q121.74-34.3 118.44-29.6 115.14-24.9 115.14-16L115.14-16Q115.14-5.2 120.09-2.05L120.09-2.05Q121.59-1.1 122.87-0.83 124.14-0.55 126.44-0.55 128.74-0.55 133.19-1.2L133.19-1.2 133.39-12.7Q133.39-13.3 132.79-13.4L132.79-13.4 129.19-13.65Q129.14-13.95 129.14-14.4L129.14-14.4ZM157.44-1.9L157.44-1.9 157.29-1.9Q152.79 0.2 148.54 0.2L148.54 0.2Q141.89 0.2 141.49-5.05L141.49-5.05Q141.44-5.4 141.44-5.7L141.44-5.7Q141.44-9.55 146.49-10.85L146.49-10.85Q149.49-11.5 157.29-12.4L157.29-12.4 157.29-16.8Q157.29-18.9 156.79-20.4 156.29-21.9 155.69-22.63 155.09-23.35 154.14-23.75L154.14-23.75Q152.94-24.25 151.46-24.25 149.99-24.25 148.09-23.5L148.09-23.5Q145.34-22.35 143.19-20.6L143.19-20.6 142.99-16.7 142.04-16.45 142.04-22.5 142.54-22.7Q146.44-24.4 148.49-24.75 150.54-25.1 151.49-25.13 152.44-25.15 153.31-25.1 154.19-25.05 155.59-24.65 156.99-24.25 158.01-23.53 159.04-22.8 159.79-21.35 160.54-19.9 160.54-17.9L160.54-17.9 160.54-2.6Q160.54-1.05 161.34-1.05L161.34-1.05 164.39-0.9 164.34-0.15Q161.54 0.25 159.34 0.25L159.34 0.25Q158.74 0.2 158.09-0.38 157.44-0.95 157.44-1.9ZM149.44-0.6L149.44-0.6Q153.14-0.6 157.29-3.2L157.29-3.2 157.29-11.45Q149.79-11.2 147.86-10.58 145.94-9.95 145.21-8.63 144.49-7.3 144.49-6L144.49-6Q144.49-5.75 144.49-5.5L144.49-5.5Q144.64-2.9 146.04-1.75 147.44-0.6 149.44-0.6ZM176.79-0.95L176.79-0.95 178.74-1.05 178.89-0.55Q178.84-0.55 178.19-0.4L178.19-0.4Q176.69-0.05 174.84-0.05L174.84-0.05Q173.14-0.15 171.74-0.63 170.34-1.1 169.14-2.63 167.94-4.15 167.94-6.55L167.94-6.55 167.94-24.1 165.39-24.1 165.79-24.5 167.99-24.95 168.39-29.75 171.19-30 171.19-25 177.24-25 177.24-24.1 171.19-24.1 171.19-7.4Q171.19-3.6 172.79-2.27 174.39-0.95 176.79-0.95ZM184.18-11.5L184.18-11.5Q184.18-0.7 192.58-0.7L192.58-0.7Q194.78-0.7 197.28-1.18 199.78-1.65 200.48-2.05L200.48-2.05 200.83-1.55Q199.68-0.8 197.06-0.3 194.43 0.2 192.26 0.2 190.08 0.2 188.36-0.25 186.63-0.7 184.83-1.85 183.03-3 181.98-5.45 180.93-7.9 180.93-11.45L180.93-11.45Q180.93-18.05 184.33-21.55L184.33-21.55Q187.88-25.2 192.58-25.2 197.28-25.2 199.76-22.6 202.23-20 202.23-15.3L202.23-15.3Q202.23-14.3 202.08-13.15L202.08-13.15 184.23-13.15Q184.18-12.6 184.18-11.5ZM199.28-15.65L199.28-15.65Q199.28-19.4 197.63-21.78 195.98-24.15 193.13-24.15L193.13-24.15Q189.43-24.15 186.88-20.9L186.88-20.9Q184.83-18.35 184.33-14.1L184.33-14.1 199.23-14.1Q199.28-14.65 199.28-15.65Z" opacity="1" transform="matrix(1,0,0,1,0,0)" fill="#111111" class="wordmark-text-0" data-fill-palette-color="primary" id="text-0"></path></svg></g></svg></g></svg></g></svg></g><g><svg viewBox="0 0 244.43135999999998 244.43135999999998" height="244.43135999999998" width="244.43135999999998"><g><svg viewBox="0 0 244.43135999999998 244.43135999999998" height="244.43135999999998" width="244.43135999999998"><g transform="matrix(1,0,0,1,64.6026559364499,65.11130804799474)"><svg viewBox="0 0 115.22604812710016 114.2087439040105" height="114.2087439040105" width="115.22604812710016"><g><svg xmlns="http://www.w3.org/2000/svg" xmlns:xlink="http://www.w3.org/1999/xlink" version="1.1" x="0" y="0" viewBox="5.94 6.329 88.121 87.343" enable-background="new 0 0 100 100" xml:space="preserve" height="114.2087439040105" width="115.22604812710016" class="icon-cg-0" data-fill-palette-color="accent" id="cg-0"><g fill="#3d9970" data-fill-palette-color="accent"><path fill="none" d="M63.34 12.448v7.148H34.829l-4.803 4.79c-0.316-0.169-0.668-0.267-1.043-0.267-1.225 0-2.231 0.995-2.231 2.22 0 0.375 0.097 0.739 0.278 1.042l-8.404 8.404-0.002 0.002c-0.317-0.176-0.677-0.285-1.066-0.285-1.226 0-2.223 0.997-2.223 2.223 0 1.226 0.998 2.223 2.223 2.223s2.223-0.997 2.223-2.223c0-0.394-0.111-0.76-0.292-1.081l8.391-8.392c0.328 0.207 0.703 0.315 1.104 0.315 1.225 0 2.22-1.006 2.22-2.231 0-0.4-0.109-0.776-0.303-1.104l4.427-4.426h29.227v-8.362c0.93-0.266 1.615-1.114 1.615-2.127 0-1.226-0.996-2.223-2.223-2.223-1.226 0-2.223 0.997-2.223 2.223C61.723 11.333 62.409 12.182 63.34 12.448zM17.557 38.737c-0.557 0-1.01-0.453-1.01-1.01 0-0.558 0.454-1.011 1.01-1.011s1.01 0.453 1.01 1.011C18.567 38.284 18.114 38.737 17.557 38.737zM28.982 27.358c-0.061 0-0.121 0-0.182-0.024-0.436-0.073-0.776-0.437-0.825-0.885-0.012-0.037-0.012-0.073-0.012-0.109 0-0.559 0.461-1.007 1.019-1.007 0.037 0 0.061 0 0.097 0.012 0.461 0.037 0.824 0.376 0.885 0.825 0.025 0.06 0.025 0.109 0.025 0.17C29.989 26.897 29.541 27.358 28.982 27.358zM63.945 9.309c0.557 0 1.01 0.453 1.01 1.01s-0.453 1.01-1.01 1.01-1.01-0.453-1.01-1.01S63.389 9.309 63.945 9.309z"></path><path fill="none" d="M11.493 12.213v20.049l15.765-15.765H57.68v-4.049c0.93-0.266 1.617-1.114 1.617-2.128 0-1.226-0.997-2.223-2.223-2.223-1.227 0-2.223 0.997-2.223 2.223 0 1.014 0.686 1.862 1.615 2.128v2.836H26.756l-14.05 14.05V12.213c0.93-0.266 1.617-1.114 1.617-2.128 0-1.226-0.997-2.223-2.223-2.223-1.226 0-2.223 0.997-2.223 2.223C9.876 11.099 10.563 11.947 11.493 12.213zM56.063 10.319c0-0.557 0.454-1.01 1.011-1.01s1.01 0.453 1.01 1.01-0.453 1.01-1.01 1.01S56.063 10.876 56.063 10.319zM12.1 9.075c0.557 0 1.01 0.453 1.01 1.01 0 0.557-0.454 1.01-1.01 1.01s-1.01-0.453-1.01-1.01C11.089 9.527 11.543 9.075 12.1 9.075z"></path><path fill="none" d="M75.771 12.448v16.171H53.129c-0.255-0.934-1.104-1.613-2.123-1.613-1.018 0-1.867 0.679-2.122 1.613H39.23L18.517 49.345c-0.292-0.157-0.618-0.231-0.958-0.231-1.225 0-2.219 0.995-2.219 2.22 0 1.225 0.995 2.219 2.219 2.219s2.22-0.994 2.22-2.219c0-0.436-0.134-0.848-0.352-1.188L39.74 29.832h9.145c0.254 0.934 1.104 1.613 2.122 1.613 1.02 0 1.868-0.679 2.123-1.613h23.855V12.447c0.93-0.266 1.615-1.114 1.615-2.127 0-1.226-0.998-2.223-2.223-2.223-1.227 0-2.224 0.997-2.224 2.223C74.153 11.333 74.84 12.182 75.771 12.448zM17.558 52.34c-0.558 0-1.006-0.447-1.006-1.006 0-0.557 0.449-1.007 1.006-1.007 0.206 0 0.389 0.062 0.546 0.171h0.012c0.109 0.073 0.206 0.169 0.279 0.279 0 0 0.012 0.012 0.012 0.023 0.097 0.158 0.157 0.338 0.157 0.534C18.565 51.893 18.116 52.34 17.558 52.34zM51.807 29.832c-0.182 0.242-0.473 0.4-0.801 0.4-0.328 0-0.618-0.158-0.8-0.4C50.072 29.662 50 29.456 50 29.226s0.072-0.437 0.206-0.606c0.182-0.243 0.472-0.4 0.8-0.4 0.328 0 0.619 0.158 0.801 0.4 0.133 0.169 0.207 0.376 0.207 0.606S51.939 29.662 51.807 29.832zM76.377 9.309c0.557 0 1.01 0.453 1.01 1.01s-0.453 1.01-1.01 1.01-1.012-0.453-1.012-1.01S75.82 9.309 76.377 9.309z"></path><path fill="none" d="M89.191 85.373c-1.014 0-1.863 0.688-2.127 1.617H60.723c-0.266-0.93-1.114-1.617-2.128-1.617-1.226 0-2.224 0.996-2.224 2.223s0.998 2.223 2.224 2.223c1.014 0 1.862-0.688 2.128-1.617h26.342c0.264 0.93 1.113 1.617 2.127 1.617 1.227 0 2.223-0.996 2.223-2.223S90.418 85.373 89.191 85.373zM58.595 88.605c-0.557 0-1.011-0.453-1.011-1.01s0.454-1.01 1.011-1.01 1.011 0.453 1.011 1.01S59.151 88.605 58.595 88.605zM89.191 88.605c-0.523 0-0.941-0.406-0.99-0.916v-0.188c0.049-0.51 0.467-0.916 0.99-0.916 0.557 0 1.012 0.453 1.012 1.01S89.748 88.605 89.191 88.605z"></path><path fill="none" d="M37.229 23.926L18.408 42.759c-0.328-0.206-0.704-0.314-1.116-0.314-1.226 0-2.22 0.994-2.22 2.219s0.994 2.22 2.22 2.22c1.225 0 2.219-0.995 2.219-2.22 0-0.376-0.097-0.728-0.268-1.03l18.495-18.495h27.846c0.279 0.885 1.115 1.528 2.098 1.528s1.819-0.643 2.098-1.528h1.747V12.447c0.93-0.266 1.615-1.114 1.615-2.127 0-1.226-0.997-2.223-2.223-2.223s-2.224 0.997-2.224 2.223c0 1.014 0.688 1.863 1.618 2.129v11.478h-0.485c-0.23-0.97-1.103-1.698-2.146-1.698-1.043 0-1.916 0.728-2.146 1.698H37.229zM17.292 45.67c-0.558 0-1.007-0.448-1.007-1.007 0-0.557 0.449-1.006 1.007-1.006 0.558 0 1.006 0.449 1.006 1.006C18.298 45.222 17.85 45.67 17.292 45.67zM69.908 10.319c0-0.557 0.454-1.01 1.011-1.01s1.011 0.453 1.011 1.01-0.454 1.01-1.011 1.01S69.908 10.876 69.908 10.319zM66.82 23.926c0.17-0.292 0.498-0.485 0.861-0.485s0.691 0.194 0.861 0.485c0.098 0.157 0.146 0.327 0.146 0.521 0 0.267-0.108 0.509-0.267 0.691-0.193 0.194-0.449 0.315-0.74 0.315s-0.545-0.121-0.74-0.315c-0.157-0.182-0.266-0.424-0.266-0.691C66.676 24.253 66.724 24.083 66.82 23.926z"></path><path fill="none" d="M20.565 77.287c0.256 0.934 1.104 1.613 2.122 1.613 1.02 0 1.868-0.68 2.123-1.613h15.38c0.265 0.93 1.114 1.617 2.128 1.617 1.226 0 2.223-0.998 2.223-2.223 0-1.227-0.997-2.225-2.223-2.225-1.014 0-1.863 0.688-2.128 1.617H24.81c-0.255-0.934-1.103-1.613-2.123-1.613-1.019 0-1.866 0.68-2.122 1.613h-9.071v7.482h32.49l6.27-6.27h22.605c0.265 0.93 1.113 1.617 2.127 1.617 1.227 0 2.225-0.998 2.225-2.223 0-1.227-0.998-2.225-2.225-2.225-1.014 0-1.862 0.688-2.127 1.617H49.745l-6.258 6.27h-30.78v-5.057H20.565zM42.318 75.67c0.557 0 1.01 0.455 1.01 1.012s-0.454 1.01-1.01 1.01-1.01-0.453-1.01-1.01S41.762 75.67 42.318 75.67zM21.888 76.074c0.181-0.242 0.473-0.4 0.799-0.4 0.328 0 0.62 0.158 0.801 0.4 0.134 0.17 0.206 0.377 0.206 0.607 0 0.229-0.072 0.436-0.206 0.605-0.181 0.242-0.473 0.4-0.801 0.4-0.327 0-0.618-0.158-0.799-0.4-0.134-0.17-0.206-0.377-0.206-0.605C21.682 76.451 21.754 76.244 21.888 76.074zM74.049 76.324c0.146-0.381 0.508-0.654 0.938-0.654 0.557 0 1.012 0.455 1.012 1.012s-0.455 1.01-1.012 1.01c-0.43 0-0.791-0.273-0.938-0.654V76.324z"></path><path fill="none" d="M62.527 46.871h-3.262c-0.146-1.08-1.08-1.904-2.195-1.904s-2.037 0.824-2.183 1.904h-11.51L21.451 68.799h-8.744V43.415c0.934-0.255 1.613-1.104 1.613-2.122 0-1.225-0.995-2.231-2.219-2.231s-2.22 1.007-2.22 2.231c0 1.019 0.679 1.867 1.613 2.122V70.01h10.454l21.927-21.926h11.169c0.34 0.789 1.115 1.334 2.025 1.334s1.686-0.545 2.025-1.334h2.219v5.76h-6.912c-0.207-1.006-1.116-1.77-2.184-1.77-1.224 0-2.219 0.994-2.219 2.219 0 0.861 0.497 1.613 1.213 1.965v16.178H30.244l14.093-14.104v8.604c-0.824 0.324-1.412 1.125-1.412 2.064 0 1.227 0.998 2.223 2.223 2.223 1.226 0 2.223-0.996 2.223-2.223 0-1.088-0.788-1.992-1.822-2.182v-11.41l-18.24 18.24h25.117V56.5c0.873-0.072 1.601-0.654 1.879-1.443h8.223V46.871zM11.094 41.292c0-0.559 0.449-1.019 1.007-1.019 0.558 0 1.006 0.46 1.006 1.019 0 0.558-0.449 1.006-1.006 1.006C11.543 42.298 11.094 41.85 11.094 41.292zM57.543 48.083c-0.146 0.073-0.303 0.121-0.473 0.121s-0.328-0.035-0.461-0.121c-0.328-0.157-0.546-0.509-0.546-0.897 0-0.109 0.013-0.218 0.061-0.315 0.122-0.4 0.497-0.691 0.946-0.691s0.824 0.291 0.958 0.691c0.036 0.098 0.061 0.206 0.061 0.315C58.089 47.575 57.871 47.914 57.543 48.083zM45.147 67.99c0.557 0 1.01 0.453 1.01 1.01 0 0.559-0.454 1.01-1.01 1.01s-1.01-0.451-1.01-1.01C44.137 68.443 44.591 67.99 45.147 67.99zM52.887 55.057c-0.121 0.109-0.292 0.195-0.461 0.23-0.072 0.014-0.135 0.025-0.207 0.025-0.557 0-1.006-0.461-1.006-1.02 0-0.158 0.037-0.316 0.121-0.449 0.145-0.326 0.484-0.557 0.885-0.557s0.74 0.23 0.91 0.557c0.072 0.133 0.109 0.291 0.109 0.449C53.238 54.596 53.104 54.863 52.887 55.057z"></path><path fill="none" d="M75.553 47.029c0.256 0.097 0.533 0.157 0.824 0.157 1.225 0 2.221-0.995 2.221-2.22 0-1.019-0.68-1.867-1.613-2.121v-6.149H40.346L27.321 49.708c-0.327-0.183-0.691-0.291-1.091-0.291-1.226 0-2.232 0.995-2.232 2.219 0 0.4 0.11 0.766 0.303 1.092l-5.518 5.518-0.004 0.006c-0.352-0.232-0.77-0.369-1.221-0.369-1.226 0-2.223 0.998-2.223 2.223 0 1.227 0.998 2.223 2.223 2.223s2.223-0.996 2.223-2.223c0-0.332-0.078-0.643-0.208-0.924l5.603-5.604c0.315 0.182 0.667 0.277 1.055 0.277 1.225 0 2.218-0.994 2.218-2.219 0-0.375-0.096-0.739-0.278-1.054l12.674-12.674h34.928v4.937c-0.936 0.254-1.613 1.103-1.613 2.121 0 0.485 0.158 0.946 0.438 1.311l-8.284 8.284-0.007 0.006c-0.313-0.166-0.663-0.27-1.041-0.27-1.227 0-2.223 0.998-2.223 2.223 0 1.227 0.996 2.223 2.223 2.223 1.226 0 2.223-0.996 2.223-2.223 0-0.404-0.115-0.779-0.307-1.107l0.005-0.004L75.553 47.029zM17.557 61.117c-0.557 0-1.01-0.453-1.01-1.012 0-0.557 0.454-1.01 1.01-1.01s1.01 0.453 1.01 1.01C18.567 60.664 18.114 61.117 17.557 61.117zM26.23 52.643c-0.037 0-0.073 0-0.11-0.012-0.448-0.035-0.825-0.389-0.885-0.824-0.025-0.061-0.025-0.107-0.025-0.17 0-0.557 0.462-1.006 1.02-1.006 0.049 0 0.109 0 0.158 0.024 0.449 0.061 0.8 0.425 0.836 0.873 0.012 0.037 0.012 0.074 0.012 0.109C27.235 52.195 26.788 52.643 26.23 52.643zM75.771 44.166c0.168-0.132 0.375-0.206 0.605-0.206s0.438 0.074 0.607 0.206c0.242 0.183 0.4 0.475 0.4 0.801 0 0.462-0.316 0.85-0.74 0.972-0.084 0.023-0.17 0.035-0.268 0.035-0.4 0-0.752-0.241-0.896-0.581-0.072-0.134-0.109-0.267-0.109-0.426C75.371 44.64 75.527 44.348 75.771 44.166zM65.264 57.529c-0.557 0-1.01-0.453-1.01-1.01s0.453-1.01 1.01-1.01c0.185 0 0.348 0.063 0.496 0.148l0.363 0.363c0.087 0.148 0.15 0.313 0.15 0.498C66.273 57.076 65.82 57.529 65.264 57.529z"></path><path fill="none" d="M89.191 69c-1.014 0-1.863 0.688-2.127 1.617H60.514v-9.096h7.52l13.268-13.267c0.242 0.097 0.498 0.145 0.777 0.145 1.225 0 2.23-0.995 2.23-2.22 0-0.995-0.654-1.843-1.564-2.11v-15.62c0.91-0.267 1.564-1.116 1.564-2.11 0-0.995-0.654-1.832-1.564-2.111V12.487c0.996-0.221 1.742-1.107 1.742-2.167 0-1.226-0.996-2.223-2.223-2.223s-2.223 0.997-2.223 2.223c0 0.968 0.625 1.785 1.49 2.089v11.784c-0.957 0.243-1.674 1.116-1.674 2.147 0 1.03 0.717 1.916 1.674 2.146v15.548c-0.957 0.229-1.674 1.115-1.674 2.146 0 0.51 0.17 0.972 0.461 1.347L67.536 60.309h-8.234V71.83H77.59v10.006h-22.69l-3.833 3.832c-0.314-0.195-0.678-0.291-1.066-0.291-1.019 0-1.868 0.68-2.123 1.613H12.97c-0.265-0.93-1.114-1.617-2.128-1.617-1.226 0-2.223 0.996-2.223 2.223s0.997 2.223 2.223 2.223c1.014 0 1.863-0.688 2.128-1.617h34.907c0.255 0.934 1.104 1.613 2.123 1.613 1.225 0 2.219-0.994 2.219-2.219 0-0.389-0.097-0.752-0.291-1.066l3.48-3.482h23.395V71.83h8.262c0.264 0.93 1.113 1.617 2.127 1.617 1.227 0 2.223-0.998 2.223-2.225C91.414 69.998 90.418 69 89.191 69zM81.254 10.319c0-0.557 0.453-1.01 1.01-1.01s1.01 0.453 1.01 1.01-0.453 1.01-1.01 1.01S81.254 10.876 81.254 10.319zM81.07 26.339c0-0.352 0.182-0.667 0.461-0.849 0.158-0.097 0.352-0.158 0.547-0.158 0.254 0 0.484 0.097 0.666 0.255 0.219 0.182 0.352 0.449 0.352 0.752s-0.133 0.569-0.352 0.764c-0.182 0.158-0.412 0.255-0.666 0.255-0.195 0-0.389-0.061-0.547-0.158C81.252 27.006 81.07 26.69 81.07 26.339zM81.531 45.332c0.158-0.109 0.352-0.171 0.547-0.171 0.254 0 0.484 0.098 0.666 0.256 0.219 0.193 0.352 0.46 0.352 0.763 0 0.438-0.279 0.801-0.666 0.946-0.109 0.037-0.23 0.061-0.352 0.061-0.377 0-0.715-0.218-0.887-0.533-0.072-0.146-0.121-0.303-0.121-0.474C81.07 45.829 81.252 45.512 81.531 45.332zM10.842 88.605c-0.557 0-1.01-0.453-1.01-1.01s0.454-1.01 1.01-1.01 1.01 0.453 1.01 1.01S11.398 88.605 10.842 88.605zM50 88.602c-0.328 0-0.619-0.156-0.801-0.4-0.134-0.17-0.206-0.375-0.206-0.605s0.072-0.436 0.206-0.605c0.182-0.244 0.473-0.4 0.801-0.4 0.048 0 0.085 0 0.134 0.012 0.448 0.061 0.799 0.412 0.861 0.861 0.011 0.047 0.011 0.084 0.011 0.133C51.006 88.154 50.558 88.602 50 88.602zM89.191 72.234c-0.521 0-0.938-0.404-0.99-0.912v-0.199c0.053-0.508 0.469-0.91 0.99-0.91 0.557 0 1.012 0.453 1.012 1.01S89.748 72.234 89.191 72.234z"></path><path fill="none" d="M87.365 12.447v36.559c-0.934 0.256-1.613 1.104-1.613 2.122 0 0.389 0.096 0.766 0.291 1.08L72.787 65.463h-7.618c-0.266-0.93-1.114-1.617-2.128-1.617-1.227 0-2.224 0.998-2.224 2.223 0 1.227 0.997 2.225 2.224 2.225 1.014 0 1.862-0.688 2.128-1.617h8.128l13.607-13.621c0.316 0.195 0.68 0.293 1.066 0.293 1.227 0 2.219-0.996 2.219-2.221 0-1.018-0.678-1.866-1.611-2.122V12.448c0.93-0.265 1.619-1.114 1.619-2.129 0-1.226-0.998-2.223-2.225-2.223-1.225 0-2.223 0.997-2.223 2.223C85.75 11.333 86.436 12.181 87.365 12.447zM63.947 66.498c-0.163 0.342-0.506 0.582-0.906 0.582-0.557 0-1.011-0.455-1.011-1.012s0.454-1.01 1.011-1.01c0.4 0 0.743 0.24 0.906 0.582V66.498zM88.979 51.127c0 0.559-0.449 1.008-1.008 1.008-0.049 0-0.084 0-0.133-0.012-0.449-0.061-0.801-0.4-0.861-0.85-0.012-0.049-0.012-0.096-0.012-0.146 0-0.327 0.158-0.618 0.4-0.8 0.17-0.133 0.375-0.206 0.605-0.206s0.438 0.073 0.607 0.206C88.82 50.509 88.979 50.8 88.979 51.127zM87.973 9.309c0.557 0 1.012 0.453 1.012 1.01s-0.455 1.01-1.012 1.01-1.01-0.453-1.01-1.01S87.416 9.309 87.973 9.309z"></path><path fill="none" d="M90.424 57.277c0-1.225-0.998-2.223-2.223-2.223-1.227 0-2.223 0.998-2.223 2.223 0 1.014 0.686 1.861 1.615 2.129v4.838c-0.93 0.266-1.615 1.115-1.615 2.129 0 1.225 0.996 2.223 2.223 2.223 1.225 0 2.223-0.998 2.223-2.223 0-1.014-0.688-1.863-1.617-2.129v-4.838C89.736 59.139 90.424 58.291 90.424 57.277zM89.211 66.373c0 0.557-0.453 1.01-1.01 1.01s-1.01-0.453-1.01-1.01c0-0.406 0.242-0.75 0.586-0.91h0.848C88.969 65.623 89.211 65.967 89.211 66.373zM88.201 58.287c-0.557 0-1.01-0.453-1.01-1.01s0.453-1.01 1.01-1.01 1.01 0.453 1.01 1.01S88.758 58.287 88.201 58.287z"></path><path d="M65.76 55.658c-0.148-0.086-0.312-0.148-0.496-0.148-0.557 0-1.01 0.453-1.01 1.01s0.453 1.01 1.01 1.01 1.01-0.453 1.01-1.01c0-0.186-0.063-0.35-0.15-0.498L65.76 55.658z" fill="#3d9970" data-fill-palette-color="accent"></path><circle cx="42.318" cy="76.681" r="1.0" fill="#3d9970" data-fill-palette-color="accent"></circle><path d="M76.377 45.973c0.098 0 0.184-0.012 0.268-0.035 0.424-0.122 0.74-0.51 0.74-0.972 0-0.326-0.158-0.618-0.4-0.801-0.17-0.132-0.377-0.206-0.607-0.206s-0.438 0.074-0.605 0.206c-0.244 0.183-0.4 0.475-0.4 0.801 0 0.159 0.037 0.292 0.109 0.426C75.625 45.732 75.977 45.973 76.377 45.973z" fill="#3d9970" data-fill-palette-color="accent"></path><path d="M22.688 77.688c0.328 0 0.62-0.158 0.801-0.4 0.134-0.17 0.206-0.377 0.206-0.605 0-0.23-0.072-0.438-0.206-0.607-0.181-0.242-0.473-0.4-0.801-0.4-0.327 0-0.618 0.158-0.799 0.4-0.134 0.17-0.206 0.377-0.206 0.607 0 0.229 0.072 0.436 0.206 0.605C22.069 77.529 22.361 77.688 22.688 77.688z" fill="#3d9970" data-fill-palette-color="accent"></path><path d="M52.219 53.287c-0.4 0-0.74 0.23-0.885 0.557-0.084 0.133-0.121 0.291-0.121 0.449 0 0.559 0.449 1.02 1.006 1.02 0.072 0 0.135-0.012 0.207-0.025 0.169-0.035 0.34-0.121 0.461-0.23 0.217-0.193 0.352-0.461 0.352-0.764 0-0.158-0.037-0.316-0.109-0.449C52.959 53.518 52.619 53.287 52.219 53.287z" fill="#3d9970" data-fill-palette-color="accent"></path><path d="M57.07 46.179c-0.449 0-0.824 0.291-0.946 0.691-0.048 0.098-0.061 0.206-0.061 0.315 0 0.389 0.218 0.74 0.546 0.897 0.133 0.086 0.291 0.121 0.461 0.121s0.326-0.048 0.473-0.121c0.328-0.17 0.546-0.509 0.546-0.897 0-0.109-0.024-0.218-0.061-0.315C57.895 46.47 57.52 46.179 57.07 46.179z" fill="#3d9970" data-fill-palette-color="accent"></path><path d="M74.986 77.691c0.557 0 1.012-0.453 1.012-1.01s-0.455-1.012-1.012-1.012c-0.43 0-0.791 0.273-0.938 0.654v0.713C74.195 77.418 74.557 77.691 74.986 77.691z" fill="#3d9970" data-fill-palette-color="accent"></path><path d="M13.107 41.292c0-0.559-0.449-1.019-1.006-1.019-0.558 0-1.007 0.46-1.007 1.019 0 0.558 0.449 1.006 1.007 1.006C12.659 42.298 13.107 41.85 13.107 41.292z" fill="#3d9970" data-fill-palette-color="accent"></path><path d="M26.388 50.655c-0.049-0.024-0.109-0.024-0.158-0.024-0.558 0-1.02 0.45-1.02 1.006 0 0.063 0 0.109 0.025 0.17 0.06 0.436 0.437 0.789 0.885 0.824 0.037 0.012 0.073 0.012 0.11 0.012 0.558 0 1.005-0.447 1.005-1.006 0-0.035 0-0.072-0.012-0.109C27.188 51.08 26.836 50.715 26.388 50.655z" fill="#3d9970" data-fill-palette-color="accent"></path><circle cx="45.147" cy="69" r="1.0" fill="#3d9970" data-fill-palette-color="accent"></circle><circle cx="17.557" cy="60.106" r="1.0" fill="#3d9970" data-fill-palette-color="accent"></circle><path d="M63.041 65.059c-0.557 0-1.011 0.453-1.011 1.01s0.454 1.012 1.011 1.012c0.4 0 0.743-0.24 0.906-0.582v-0.857C63.784 65.299 63.441 65.059 63.041 65.059z" fill="#3d9970" data-fill-palette-color="accent"></path><circle cx="58.595" cy="87.596" r="1.0" fill="#3d9970" data-fill-palette-color="accent"></circle><path d="M87.777 65.463c-0.344 0.16-0.586 0.504-0.586 0.91 0 0.557 0.453 1.01 1.01 1.01s1.01-0.453 1.01-1.01c0-0.406-0.242-0.75-0.586-0.91H87.777z" fill="#3d9970" data-fill-palette-color="accent"></path><circle cx="88.201" cy="57.277" r="1.0" fill="#3d9970" data-fill-palette-color="accent"></circle><path d="M87.971 50.121c-0.23 0-0.436 0.073-0.605 0.206-0.242 0.183-0.4 0.474-0.4 0.8 0 0.051 0 0.098 0.012 0.146 0.061 0.449 0.412 0.789 0.861 0.85 0.049 0.012 0.084 0.012 0.133 0.012 0.559 0 1.008-0.449 1.008-1.008 0-0.327-0.158-0.618-0.4-0.8C88.408 50.194 88.201 50.121 87.971 50.121z" fill="#3d9970" data-fill-palette-color="accent"></path><path d="M89.191 86.586c-0.523 0-0.941 0.406-0.99 0.916v0.188c0.049 0.51 0.467 0.916 0.99 0.916 0.557 0 1.012-0.453 1.012-1.01S89.748 86.586 89.191 86.586z" fill="#3d9970" data-fill-palette-color="accent"></path><path d="M51.006 28.219c-0.328 0-0.618 0.158-0.8 0.4C50.072 28.789 50 28.995 50 29.226s0.072 0.437 0.206 0.606c0.182 0.242 0.472 0.4 0.8 0.4 0.328 0 0.619-0.158 0.801-0.4 0.133-0.17 0.207-0.376 0.207-0.606s-0.074-0.437-0.207-0.606C51.625 28.376 51.334 28.219 51.006 28.219z" fill="#3d9970" data-fill-palette-color="accent"></path><path d="M18.396 50.777c-0.073-0.11-0.17-0.206-0.279-0.279h-0.012c-0.158-0.109-0.34-0.171-0.546-0.171-0.558 0-1.006 0.45-1.006 1.007 0 0.559 0.449 1.006 1.006 1.006 0.558 0 1.007-0.447 1.007-1.006 0-0.195-0.061-0.375-0.157-0.534C18.408 50.789 18.396 50.777 18.396 50.777z" fill="#3d9970" data-fill-palette-color="accent"></path><circle cx="87.973" cy="10.319" r="1.0" fill="#3d9970" data-fill-palette-color="accent"></circle><circle cx="76.377" cy="10.319" r="1.0" fill="#3d9970" data-fill-palette-color="accent"></circle><circle cx="57.074" cy="10.319" r="1.0" fill="#3d9970" data-fill-palette-color="accent"></circle><path d="M82.078 27.358c0.254 0 0.484-0.097 0.666-0.255 0.219-0.194 0.352-0.46 0.352-0.764s-0.133-0.57-0.352-0.752c-0.182-0.158-0.412-0.255-0.666-0.255-0.195 0-0.389 0.061-0.547 0.158-0.279 0.182-0.461 0.497-0.461 0.849 0 0.351 0.182 0.667 0.461 0.861C81.689 27.297 81.883 27.358 82.078 27.358z" fill="#3d9970" data-fill-palette-color="accent"></path><path d="M82.078 47.186c0.121 0 0.242-0.023 0.352-0.061 0.387-0.146 0.666-0.509 0.666-0.946 0-0.303-0.133-0.569-0.352-0.763-0.182-0.158-0.412-0.256-0.666-0.256-0.195 0-0.389 0.062-0.547 0.171-0.279 0.181-0.461 0.497-0.461 0.848 0 0.171 0.049 0.328 0.121 0.474C81.363 46.968 81.701 47.186 82.078 47.186z" fill="#3d9970" data-fill-palette-color="accent"></path><path d="M89.191 70.213c-0.521 0-0.938 0.402-0.99 0.91v0.199c0.053 0.508 0.469 0.912 0.99 0.912 0.557 0 1.012-0.455 1.012-1.012S89.748 70.213 89.191 70.213z" fill="#3d9970" data-fill-palette-color="accent"></path><circle cx="12.1" cy="10.085" r="1.0" fill="#3d9970" data-fill-palette-color="accent"></circle><circle cx="82.264" cy="10.319" r="1.0" fill="#3d9970" data-fill-palette-color="accent"></circle><path d="M50.134 86.602C50.085 86.59 50.048 86.59 50 86.59c-0.328 0-0.619 0.156-0.801 0.4-0.134 0.17-0.206 0.375-0.206 0.605s0.072 0.436 0.206 0.605c0.182 0.244 0.473 0.4 0.801 0.4 0.558 0 1.006-0.447 1.006-1.006 0-0.049 0-0.086-0.011-0.133C50.933 87.014 50.582 86.662 50.134 86.602z" fill="#3d9970" data-fill-palette-color="accent"></path><circle cx="10.842" cy="87.596" r="1.0" fill="#3d9970" data-fill-palette-color="accent"></circle><path d="M67.682 25.453c0.291 0 0.547-0.121 0.74-0.315 0.158-0.182 0.267-0.424 0.267-0.691 0-0.194-0.048-0.364-0.146-0.521-0.17-0.292-0.498-0.485-0.861-0.485s-0.691 0.194-0.861 0.485c-0.097 0.157-0.145 0.327-0.145 0.521 0 0.267 0.108 0.509 0.266 0.691C67.137 25.333 67.391 25.453 67.682 25.453z" fill="#3d9970" data-fill-palette-color="accent"></path><path d="M29.08 25.344c-0.037-0.012-0.061-0.012-0.097-0.012-0.558 0-1.019 0.448-1.019 1.007 0 0.036 0 0.072 0.012 0.109 0.049 0.449 0.389 0.813 0.825 0.885 0.062 0.024 0.122 0.024 0.182 0.024 0.558 0 1.007-0.461 1.007-1.019 0-0.061 0-0.11-0.025-0.17C29.904 25.72 29.541 25.381 29.08 25.344z" fill="#3d9970" data-fill-palette-color="accent"></path><circle cx="17.557" cy="37.727" r="1.0" fill="#3d9970" data-fill-palette-color="accent"></circle><circle cx="63.945" cy="10.319" r="1.0" fill="#3d9970" data-fill-palette-color="accent"></circle><circle cx="70.919" cy="10.319" r="1.0" fill="#3d9970" data-fill-palette-color="accent"></circle><path d="M17.292 43.658c-0.558 0-1.007 0.449-1.007 1.006 0 0.559 0.449 1.007 1.007 1.007 0.558 0 1.006-0.448 1.006-1.007C18.298 44.107 17.85 43.658 17.292 43.658z" fill="#3d9970" data-fill-palette-color="accent"></path><path d="M5.94 6.329v87.343h88.121V6.329H5.94zM90.424 66.373c0 1.225-0.998 2.223-2.223 2.223-1.227 0-2.223-0.998-2.223-2.223 0-1.014 0.686-1.863 1.615-2.129v-4.838c-0.93-0.268-1.615-1.115-1.615-2.129 0-1.225 0.996-2.223 2.223-2.223 1.225 0 2.223 0.998 2.223 2.223 0 1.014-0.688 1.861-1.617 2.129v4.838C89.736 64.51 90.424 65.359 90.424 66.373zM87.973 8.096c1.227 0 2.225 0.997 2.225 2.223 0 1.015-0.689 1.864-1.619 2.129v36.557c0.934 0.256 1.611 1.104 1.611 2.122 0 1.225-0.992 2.221-2.219 2.221-0.387 0-0.75-0.098-1.066-0.293L73.297 66.676h-8.128c-0.266 0.93-1.114 1.617-2.128 1.617-1.227 0-2.224-0.998-2.224-2.225 0-1.225 0.997-2.223 2.224-2.223 1.014 0 1.862 0.688 2.128 1.617h7.618l13.256-13.256c-0.195-0.314-0.291-0.691-0.291-1.08 0-1.018 0.68-1.866 1.613-2.122V12.447c-0.93-0.266-1.615-1.114-1.615-2.127C85.75 9.093 86.748 8.096 87.973 8.096zM76.377 8.096c1.225 0 2.223 0.997 2.223 2.223 0 1.014-0.686 1.862-1.615 2.127v17.385H53.129c-0.255 0.934-1.104 1.613-2.123 1.613-1.018 0-1.867-0.679-2.122-1.613H39.74L19.426 50.146c0.218 0.34 0.352 0.752 0.352 1.188 0 1.225-0.995 2.219-2.22 2.219s-2.219-0.994-2.219-2.219c0-1.225 0.995-2.22 2.219-2.22 0.34 0 0.667 0.074 0.958 0.231L39.23 28.619h9.654c0.254-0.934 1.104-1.613 2.122-1.613 1.02 0 1.868 0.679 2.123 1.613h22.643V12.448c-0.932-0.266-1.618-1.115-1.618-2.129C74.153 9.093 75.15 8.096 76.377 8.096zM67.486 56.52c0 1.227-0.997 2.223-2.223 2.223-1.227 0-2.223-0.996-2.223-2.223 0-1.225 0.996-2.223 2.223-2.223 0.378 0 0.729 0.104 1.041 0.27l0.007-0.006 8.284-8.284c-0.279-0.364-0.438-0.825-0.438-1.311 0-1.019 0.678-1.867 1.613-2.121v-4.937H40.844L28.17 50.583c0.183 0.315 0.278 0.679 0.278 1.054 0 1.225-0.994 2.219-2.218 2.219-0.388 0-0.74-0.096-1.055-0.277l-5.603 5.604c0.13 0.281 0.208 0.592 0.208 0.924 0 1.227-0.998 2.223-2.223 2.223s-2.223-0.996-2.223-2.223c0-1.225 0.998-2.223 2.223-2.223 0.451 0 0.869 0.137 1.221 0.369l0.004-0.006 5.518-5.518c-0.193-0.326-0.303-0.691-0.303-1.092 0-1.224 1.007-2.219 2.232-2.219 0.399 0 0.764 0.108 1.091 0.291l13.025-13.013h36.638v6.149c0.934 0.254 1.613 1.103 1.613 2.121 0 1.225-0.996 2.22-2.221 2.22-0.291 0-0.568-0.061-0.824-0.157l-8.368 8.379-0.005 0.004C67.371 55.74 67.486 56.115 67.486 56.52zM43.487 82.344l6.258-6.27h23.114c0.265-0.93 1.113-1.617 2.127-1.617 1.227 0 2.225 0.998 2.225 2.225 0 1.225-0.998 2.223-2.225 2.223-1.014 0-1.862-0.688-2.127-1.617H50.254l-6.27 6.27h-32.49v-7.482h9.071c0.256-0.934 1.104-1.613 2.122-1.613 1.02 0 1.868 0.68 2.123 1.613h15.38c0.265-0.93 1.114-1.617 2.128-1.617 1.226 0 2.223 0.998 2.223 2.225 0 1.225-0.997 2.223-2.223 2.223-1.014 0-1.863-0.688-2.128-1.617H24.81c-0.255 0.934-1.103 1.613-2.123 1.613-1.019 0-1.866-0.68-2.122-1.613h-7.858v5.057H43.487zM52.426 56.5v17.148H27.309l18.24-18.24v11.41c1.034 0.189 1.822 1.094 1.822 2.182 0 1.227-0.997 2.223-2.223 2.223-1.226 0-2.223-0.996-2.223-2.223 0-0.939 0.588-1.74 1.412-2.064v-8.604L30.244 72.436h20.969V56.258C50.497 55.906 50 55.154 50 54.293c0-1.225 0.995-2.219 2.219-2.219 1.067 0 1.977 0.764 2.184 1.77h6.912v-5.76h-2.219c-0.34 0.789-1.115 1.334-2.025 1.334s-1.686-0.545-2.025-1.334H43.875L21.949 70.01H11.495V43.415c-0.935-0.255-1.613-1.104-1.613-2.122 0-1.225 0.995-2.231 2.22-2.231s2.219 1.007 2.219 2.231c0 1.019-0.68 1.867-1.613 2.122v25.384h8.744l21.927-21.928h11.51c0.146-1.08 1.067-1.904 2.183-1.904s2.049 0.824 2.195 1.904h3.262v8.186h-8.223C54.026 55.846 53.299 56.428 52.426 56.5zM67.682 22.228c1.044 0 1.916 0.728 2.146 1.698h0.485V12.448c-0.931-0.266-1.618-1.115-1.618-2.129 0-1.226 0.998-2.223 2.224-2.223s2.223 0.997 2.223 2.223c0 1.014-0.686 1.862-1.615 2.127v12.691h-1.747c-0.278 0.885-1.115 1.528-2.098 1.528s-1.818-0.643-2.098-1.528H37.738L19.244 43.633c0.17 0.303 0.268 0.654 0.268 1.03 0 1.225-0.995 2.22-2.219 2.22-1.226 0-2.22-0.995-2.22-2.22s0.994-2.219 2.22-2.219c0.412 0 0.788 0.108 1.116 0.314l18.821-18.833h28.306C65.766 22.956 66.639 22.228 67.682 22.228zM63.945 8.096c1.227 0 2.223 0.997 2.223 2.223 0 1.014-0.686 1.862-1.615 2.127v8.362H35.326l-4.427 4.426c0.194 0.328 0.303 0.704 0.303 1.104 0 1.225-0.995 2.231-2.22 2.231-0.4 0-0.776-0.109-1.104-0.315l-8.391 8.392c0.181 0.321 0.292 0.687 0.292 1.081 0 1.226-0.998 2.223-2.223 2.223s-2.223-0.997-2.223-2.223c0-1.226 0.998-2.223 2.223-2.223 0.389 0 0.749 0.109 1.066 0.285l0.002-0.002 8.404-8.404c-0.181-0.303-0.278-0.667-0.278-1.042 0-1.225 1.007-2.22 2.231-2.22 0.375 0 0.727 0.097 1.043 0.267l4.803-4.79H63.34v-7.148c-0.931-0.266-1.617-1.115-1.617-2.129C61.723 9.093 62.72 8.096 63.945 8.096zM12.1 7.862c1.226 0 2.223 0.997 2.223 2.223 0 1.014-0.687 1.862-1.617 2.128v17.121l14.05-14.05h29.711v-2.836c-0.93-0.266-1.615-1.114-1.615-2.128 0-1.226 0.996-2.223 2.223-2.223 1.226 0 2.223 0.997 2.223 2.223 0 1.014-0.688 1.862-1.617 2.128v4.049H27.258L11.493 32.262V12.213c-0.93-0.266-1.617-1.114-1.617-2.128C9.876 8.859 10.874 7.862 12.1 7.862zM89.191 89.818c-1.014 0-1.863-0.688-2.127-1.617H60.723c-0.266 0.93-1.114 1.617-2.128 1.617-1.226 0-2.224-0.996-2.224-2.223s0.998-2.223 2.224-2.223c1.014 0 1.862 0.688 2.128 1.617h26.342c0.264-0.93 1.113-1.617 2.127-1.617 1.227 0 2.223 0.996 2.223 2.223S90.418 89.818 89.191 89.818zM89.191 73.447c-1.014 0-1.863-0.688-2.127-1.617h-8.262v11.217H55.408l-3.48 3.482c0.194 0.314 0.291 0.678 0.291 1.066 0 1.225-0.994 2.219-2.219 2.219-1.019 0-1.868-0.68-2.123-1.613H12.97c-0.265 0.93-1.114 1.617-2.128 1.617-1.226 0-2.223-0.996-2.223-2.223s0.997-2.223 2.223-2.223c1.014 0 1.863 0.688 2.128 1.617h34.907c0.255-0.934 1.104-1.613 2.123-1.613 0.388 0 0.752 0.096 1.066 0.291l3.833-3.832h22.69V71.83H59.302V60.309h8.234l12.782-12.783c-0.291-0.375-0.461-0.837-0.461-1.347 0-1.03 0.717-1.916 1.674-2.146V28.485c-0.957-0.23-1.674-1.116-1.674-2.146 0-1.031 0.717-1.904 1.674-2.147V12.408c-0.865-0.304-1.49-1.121-1.49-2.089 0-1.226 0.996-2.223 2.223-2.223s2.223 0.997 2.223 2.223c0 1.061-0.746 1.946-1.742 2.167v11.742c0.91 0.279 1.564 1.116 1.564 2.111 0 0.994-0.654 1.843-1.564 2.11v15.62c0.91 0.268 1.564 1.115 1.564 2.11 0 1.225-1.006 2.22-2.23 2.22-0.279 0-0.535-0.048-0.777-0.145L68.033 61.521h-7.52v9.096h26.551C87.328 69.688 88.178 69 89.191 69c1.227 0 2.223 0.998 2.223 2.223C91.414 72.449 90.418 73.447 89.191 73.447z" fill="#3d9970" data-fill-palette-color="accent"></path></g></svg></g></svg></g><g id="text-0"><path d="M3.708 89.358l-0.75 1.45-0.418-0.19 1.429-3.779 17.111-1.361-11.977-12.22 1.429-3.78c0.037 0.014 0.109 0.031 0.215 0.05 0.1 0.017 0.175 0.045 0.224 0.084v0l-0.397 1.584c-0.054 0.199 0.027 0.361 0.242 0.486v0l18.534 7.006 0.914-2.08c0.019 0.007 0.158 0.07 0.417 0.19v0l-2.15 5.773-0.39-0.18 0.359-1.566c0.054-0.199-0.014-0.356-0.205-0.472v0l-18.106-6.844 11.655 11.864 0.926 1.01-0.25 0.661-18.032 1.46 18.441 6.971 1.408-3.191c0.019 0.007 0.158 0.07 0.418 0.19v0l-2.147 5.763-0.39-0.179 0.359-1.567c0.054-0.199-0.027-0.361-0.242-0.485v0l-18.124-6.852c-0.244-0.05-0.411 0.018-0.503 0.204z" fill="#3d9970" data-fill-palette-color="accent"></path><path d="M34.728 46.814v0l10.229 8.71 1.605-1.64c0.015 0.013 0.125 0.119 0.329 0.32v0l-3.945 4.679c-0.141-0.12-0.244-0.22-0.307-0.3v0l0.866-1.354c0.082-0.096 0.067-0.217-0.043-0.364v0l-10.237-8.717c-0.137-0.064-0.233-0.064-0.289 0.002v0l-1.233 1.356-0.306-0.3c0.573-0.959 1.044-1.656 1.414-2.09 0.37-0.434 0.723-0.644 1.058-0.629 0.335 0.015 0.622 0.124 0.859 0.327zM29.967 44.132c-0.262 0.308-0.563 0.466-0.901 0.474-0.343 0.004-0.674-0.13-0.992-0.4-0.318-0.271-0.498-0.577-0.54-0.917-0.042-0.35 0.068-0.678 0.33-0.987 0.267-0.313 0.58-0.482 0.941-0.506 0.36-0.034 0.706 0.092 1.04 0.376 0.333 0.284 0.505 0.604 0.515 0.961 0.005 0.353-0.126 0.685-0.393 0.999z" fill="#3d9970" data-fill-palette-color="accent"></path><path d="M68.99 36.78l-5.26 3.206-0.196-0.382 1.251-1.009c0.149-0.113 0.155-0.283 0.018-0.511v0l-6.844-11.353c-0.12-0.121-0.214-0.162-0.281-0.12v0l-1.634 0.915-0.195-0.382c1.006-0.824 1.7-1.35 2.081-1.58v0c0.705-0.425 1.284-0.356 1.739 0.207v0l0.026-0.016 0.334 0.554c0.839-1.846 1.9-3.19 3.181-4.033v0c1.278-0.771 2.402-1.103 3.373-0.998v0c0.432 0.049 0.914 0.243 1.443 0.582 0.524 0.343 0.987 0.846 1.387 1.511v0l5.497 9.12 2.051-1.05c0.01 0.017 0.081 0.153 0.211 0.407v0l-5.235 3.19c-0.096-0.159-0.161-0.286-0.195-0.381v0l1.251-1.01c0.132-0.103 0.129-0.268-0.008-0.495v0l-4.881-8.097c-0.425-0.705-0.875-1.246-1.351-1.625-0.482-0.376-0.905-0.609-1.27-0.699-0.364-0.09-0.747-0.096-1.149-0.017v0c-0.472 0.091-0.918 0.263-1.338 0.517v0c-1.035 0.647-1.966 1.77-2.792 3.368v0l6.524 10.824 2.051-1.05c0.01 0.017 0.081 0.153 0.211 0.407z" fill="#3d9970" data-fill-palette-color="accent"></path><path d="M106.462 1.027v0l3.568 19.804c0.112 0.62 0.328 0.902 0.647 0.844v0l1.83-0.229 0.051 0.456c-0.938 0.331-1.93 0.59-2.974 0.779v0c-0.226 0.02-0.48-0.045-0.763-0.196-0.291-0.157-0.485-0.391-0.582-0.705v0c-1.013 0.924-2.274 1.522-3.782 1.794v0c-1.469 0.265-2.901 0.098-4.297-0.5v0c-0.782-0.338-1.478-0.964-2.088-1.879-0.616-0.914-1.053-2.085-1.311-3.515v0c-0.474-2.631-0.16-4.761 0.943-6.389v0c1.155-1.745 2.647-2.782 4.475-3.111v0c1.123-0.202 2.321-0.118 3.594 0.252v0l-1.297-7.199c-0.04-0.222-0.122-0.322-0.246-0.299v0l-1.842 0.271-0.046-0.426c1.234-0.411 2.086-0.659 2.556-0.744 0.47-0.085 0.836-0.016 1.099 0.207 0.256 0.224 0.411 0.485 0.465 0.785zM104.751 22.965v0c1.228-0.221 2.354-0.704 3.38-1.448v0l-2.269-12.595c-0.979-0.383-1.903-0.496-2.772-0.34v0c-1.724 0.311-2.995 1.224-3.814 2.74-0.819 1.516-1.006 3.508-0.561 5.976v0c0.786 4.362 2.798 6.251 6.036 5.667z" fill="#3d9970" data-fill-palette-color="accent"></path><path d="M145.888 15.609l5.431 0.954c-0.004 0.02-0.021 0.172-0.053 0.456v0l-1.231-0.072-1.353 7.472c-0.368 0.061-1.308 0.053-2.818-0.025-1.51-0.078-2.725-0.2-3.645-0.367-0.927-0.168-1.721-0.379-2.383-0.635-0.655-0.254-1.327-0.658-2.015-1.214-0.687-0.563-1.235-1.239-1.645-2.028-0.403-0.788-0.678-1.819-0.826-3.093-0.141-1.266-0.066-2.706 0.227-4.318v0c0.644-3.551 1.958-6.175 3.944-7.871v0c2.089-1.779 4.609-2.401 7.56-1.867v0c0.907 0.164 1.871 0.427 2.891 0.787 1.027 0.361 1.744 0.663 2.152 0.906v0l-0.423 4.403-0.607 0.113 0.193-3.303c-1.426-1.398-2.853-2.226-4.282-2.485v0c-2.272-0.412-4.241 0.206-5.909 1.852-1.668 1.653-2.826 4.265-3.473 7.836v0c-0.787 4.341-0.299 7.325 1.463 8.953v0c0.532 0.487 1.046 0.833 1.541 1.038 0.489 0.203 1.197 0.389 2.124 0.557 0.92 0.167 2.299 0.282 4.135 0.344v0l1.374-6.911c0.043-0.235-0.049-0.397-0.277-0.485v0l-2.147-0.541c0.003-0.128 0.02-0.28 0.052-0.456z" fill="#3d9970" data-fill-palette-color="accent"></path><path d="M178.951 37.431v0l-0.077-0.045c-2.017-0.205-3.772-0.751-5.266-1.641v0c-2.332-1.388-3.021-3.045-2.067-4.971v0c0.054-0.13 0.113-0.249 0.178-0.358v0c0.804-1.351 2.229-1.727 4.273-1.127v0c1.185 0.396 3.241 1.254 6.17 2.572v0l1.38-2.317c0.438-0.735 0.724-1.418 0.86-2.048 0.139-0.635 0.178-1.141 0.116-1.517-0.058-0.382-0.21-0.743-0.456-1.083v0c-0.32-0.422-0.739-0.788-1.259-1.096-0.519-0.309-1.19-0.531-2.013-0.665v0c-1.204-0.169-2.364-0.172-3.48-0.011v0l-1.332 1.987-0.578-0.159 1.899-3.189 0.326 0.055c1.725 0.216 2.982 0.478 3.771 0.785 0.793 0.302 1.359 0.551 1.699 0.745 0.337 0.185 0.655 0.378 0.953 0.579 0.298 0.2 0.649 0.518 1.055 0.952 0.405 0.434 0.713 0.884 0.922 1.349 0.206 0.47 0.29 1.037 0.25 1.7-0.034 0.667-0.26 1.351-0.677 2.053v0l-4.795 8.055c-0.322 0.542-0.344 0.896-0.065 1.062v0l1.549 1.037-0.26 0.378c-1.062-0.447-1.978-0.899-2.748-1.357v0c-0.201-0.143-0.356-0.382-0.465-0.717-0.109-0.335-0.064-0.671 0.137-1.008zM174.328 35.606v0c1.3 0.774 2.951 1.139 4.953 1.095v0l2.586-4.344c-2.688-1.477-4.436-2.309-5.243-2.495-0.805-0.178-1.473-0.113-2.005 0.196-0.529 0.318-0.929 0.705-1.201 1.161v0c-0.051 0.086-0.104 0.174-0.158 0.265v0c-0.492 0.943-0.611 1.759-0.358 2.451 0.249 0.697 0.725 1.254 1.426 1.671z" fill="#3d9970" data-fill-palette-color="accent"></path><path d="M202.607 59.208v0l0.844 0.848-0.172 0.272c-0.013-0.015-0.13-0.102-0.351-0.261v0c-0.518-0.365-1.026-0.829-1.522-1.391v0c-0.432-0.548-0.765-1.1-0.999-1.654-0.229-0.559-0.273-1.229-0.13-2.01 0.137-0.777 0.573-1.49 1.308-2.141v0l8.051-7.121-1.036-1.17 0.352 0.021 1.091 0.828 2.371-1.765 1.246 1.183-2.288 2.025 2.453 2.772-0.418 0.37-2.453-2.773-7.662 6.778c-1.158 1.024-1.725 1.96-1.702 2.807 0.028 0.852 0.367 1.646 1.017 2.382z" fill="#3d9970" data-fill-palette-color="accent"></path><path d="M221.683 77.616v0c-4.037 1.779-5.364 4.238-3.981 7.377v0c0.364 0.826 0.84 1.667 1.428 2.524 0.594 0.855 1.022 1.38 1.283 1.578v0l-0.198 0.315c-0.469-0.308-1.013-0.909-1.632-1.803-0.616-0.903-1.103-1.762-1.462-2.575-0.356-0.807-0.595-1.572-0.717-2.294-0.114-0.718-0.103-1.51 0.031-2.374 0.137-0.858 0.573-1.685 1.31-2.48 0.743-0.799 1.779-1.491 3.108-2.077v0c2.465-1.086 4.631-1.28 6.498-0.58v0c1.949 0.721 3.311 1.959 4.084 3.714 0.776 1.761 0.882 3.316 0.317 4.667-0.565 1.351-1.724 2.413-3.479 3.186v0c-0.376 0.166-0.792 0.317-1.247 0.452v0l-4.407-9.999c-0.217 0.067-0.529 0.19-0.936 0.369zM227.738 85.062v0c1.402-0.618 2.41-1.432 3.024-2.442 0.616-1.004 0.689-2.04 0.218-3.109v0c-0.607-1.378-1.728-2.276-3.363-2.694v0c-1.293-0.351-2.772-0.268-4.436 0.248v0l3.68 8.351c0.214-0.073 0.507-0.191 0.877-0.354z" fill="#3d9970" data-fill-palette-color="accent"></path><path d="M29.17 151.933l-0.451-1.693 0.475-0.151 1.56 4.038-12.681 13.295 18.279 1.196 1.556 4.029c-0.043 0.017-0.11 0.057-0.199 0.119-0.098 0.059-0.182 0.091-0.25 0.097v0l-0.804-1.556c-0.104-0.195-0.283-0.264-0.539-0.208v0l-19.773 7.639 0.741 2.306c-0.019 0.007-0.174 0.056-0.465 0.148v0l-2.402-6.135 0.437-0.137 0.831 1.514c0.097 0.197 0.265 0.271 0.502 0.222v0l19.318-7.463-17.76-1.151-1.459-0.13-0.272-0.705 13.332-14.038-19.68 7.603 1.159 3.553c-0.019 0.007-0.174 0.056-0.465 0.148v0l-2.402-6.135 0.437-0.137 0.831 1.515c0.097 0.197 0.277 0.266 0.539 0.207v0l19.346-7.474c0.227-0.13 0.313-0.302 0.259-0.516z" fill="#3d9970" data-fill-palette-color="accent"></path><path d="M45.267 195.964v0l-10.901 9.379 1.475 1.974c-0.015 0.013-0.147 0.109-0.396 0.288v0l-4.293-4.945c0.146-0.125 0.268-0.217 0.366-0.276v0l1.29 1.149c0.082 0.096 0.211 0.098 0.388 0.008v0l10.908-9.386c0.085-0.135 0.1-0.235 0.044-0.3v0l-1.234-1.525 0.374-0.283c0.916 0.77 1.573 1.386 1.972 1.849 0.398 0.463 0.56 0.87 0.487 1.222-0.068 0.348-0.228 0.63-0.48 0.846zM48.885 191.381c-0.286-0.332-0.401-0.679-0.345-1.042 0.05-0.358 0.244-0.683 0.581-0.973 0.342-0.294 0.696-0.437 1.062-0.428 0.371 0.014 0.699 0.187 0.985 0.518 0.286 0.332 0.414 0.69 0.385 1.073-0.029 0.384-0.222 0.729-0.579 1.037-0.357 0.307-0.722 0.437-1.095 0.39-0.377-0.052-0.709-0.244-0.994-0.575z" fill="#3d9970" data-fill-palette-color="accent"></path><path d="M60.951 227.679l-5.663-3.368 0.262-0.377 1.585 0.686c0.175 0.082 0.336 0.001 0.483-0.244v0l7.309-12.164c0.055-0.168 0.042-0.276-0.037-0.324v0l-1.675-1.077 0.266-0.385c1.276 0.542 2.122 0.938 2.537 1.188v0c0.745 0.448 0.969 1.028 0.673 1.739v0l0.026 0.016-0.354 0.588c2.164-0.124 3.966 0.208 5.405 0.996v0c1.365 0.82 2.243 1.716 2.635 2.686v0c0.172 0.436 0.227 0.988 0.166 1.656-0.057 0.662-0.3 1.349-0.727 2.059v0l-5.874 9.776 2.02 1.411c-0.01 0.017-0.102 0.151-0.277 0.402v0l-5.628-3.347c0.099-0.165 0.186-0.291 0.261-0.377v0l1.577 0.68c0.158 0.072 0.311-0.015 0.457-0.259v0l5.213-8.675c0.451-0.751 0.737-1.446 0.859-2.085 0.115-0.643 0.127-1.158 0.035-1.546-0.098-0.391-0.286-0.76-0.566-1.106v0c-0.321-0.394-0.706-0.726-1.155-0.996v0c-1.136-0.66-2.665-0.982-4.585-0.968v0l-6.971 11.601 2.019 1.411c-0.01 0.017-0.102 0.151-0.276 0.403z" fill="#3d9970" data-fill-palette-color="accent"></path><path d="M112.123 221.233v0l-3.803 21.187c-0.12 0.666-0.006 1.03 0.34 1.092v0l1.922 0.446-0.126 0.473c-1.062-0.015-2.152-0.123-3.268-0.323v0c-0.232-0.062-0.462-0.224-0.691-0.488-0.229-0.264-0.336-0.569-0.321-0.917v0c-1.366 0.55-2.855 0.68-4.468 0.39v0c-1.567-0.281-2.938-0.982-4.112-2.103v0c-0.662-0.631-1.129-1.52-1.401-2.668-0.274-1.141-0.273-2.476 0-4.003v0c0.506-2.821 1.614-4.843 3.324-6.067v0c1.813-1.313 3.696-1.794 5.648-1.443v0c1.208 0.217 2.377 0.747 3.506 1.59v0l1.384-7.709c0.042-0.235 0.001-0.364-0.123-0.386v0l-1.956-0.422 0.11-0.445c1.392 0.054 2.34 0.127 2.843 0.217 0.503 0.09 0.844 0.293 1.023 0.608 0.172 0.321 0.228 0.644 0.169 0.971zM102.233 242.591v0c1.313 0.236 2.622 0.171 3.927-0.195v0l2.42-13.478c-0.836-0.75-1.718-1.208-2.645-1.374v0c-1.848-0.332-3.464 0.11-4.848 1.323-1.384 1.214-2.314 3.144-2.788 5.789v0c-0.838 4.669 0.473 7.314 3.934 7.935z" fill="#3d9970" data-fill-palette-color="accent"></path><path d="M145.653 232.794l5.801-1.088c0.005 0.026 0.044 0.188 0.117 0.484v0l-1.254 0.389 1.445 8.001c-0.342 0.197-1.285 0.539-2.829 1.026-1.543 0.488-2.811 0.821-3.803 1.001-0.986 0.178-1.857 0.265-2.613 0.259-0.757-0.012-1.584-0.169-2.482-0.472-0.897-0.303-1.701-0.775-2.41-1.416-0.701-0.635-1.361-1.564-1.98-2.787-0.617-1.217-1.082-2.687-1.393-4.41v0c-0.686-3.8-0.353-6.921 1-9.363v0c1.424-2.57 3.716-4.14 6.875-4.71v0c0.966-0.174 2.031-0.272 3.193-0.294 1.163-0.021 1.998 0.013 2.507 0.104v0l1.22 4.573-0.576 0.337-1.036-3.383c-1.957-0.867-3.699-1.163-5.226-0.887v0c-2.429 0.439-4.169 1.798-5.22 4.078-1.052 2.273-1.233 5.323-0.543 9.148v0c0.839 4.649 2.445 7.456 4.818 8.424v0c0.714 0.296 1.356 0.453 1.925 0.471 0.57 0.018 1.351-0.062 2.344-0.241 0.986-0.178 2.41-0.58 4.272-1.206v0l-1.212-7.436c-0.047-0.261-0.202-0.388-0.463-0.382v0l-2.351 0.253c-0.05-0.126-0.092-0.283-0.126-0.473z" fill="#3d9970" data-fill-palette-color="accent"></path><path d="M185.884 224.902v0l-0.086 0.051c-1.222 1.789-2.632 3.157-4.23 4.104v0c-2.5 1.482-4.409 1.28-5.728-0.607v0c-0.095-0.121-0.175-0.236-0.239-0.344v0c-0.859-1.45-0.486-2.979 1.121-4.587v0c0.984-0.915 2.839-2.412 5.564-4.49v0l-1.467-2.474c-0.47-0.793-0.965-1.414-1.485-1.861-0.518-0.457-0.972-0.754-1.362-0.893-0.385-0.142-0.801-0.181-1.249-0.116v0c-0.563 0.079-1.121 0.283-1.674 0.61-0.554 0.328-1.102 0.846-1.647 1.555v0c-0.779 1.04-1.378 2.132-1.796 3.275v0l1.188 2.257-0.453 0.465-2.025-3.415 0.217-0.279c1.088-1.509 1.978-2.557 2.67-3.145 0.693-0.588 1.214-0.99 1.565-1.206 0.353-0.225 0.7-0.426 1.041-0.605 0.335-0.176 0.811-0.342 1.428-0.499 0.619-0.166 1.2-0.226 1.745-0.179 0.55 0.044 1.126 0.254 1.727 0.63 0.604 0.382 1.128 0.947 1.572 1.695v0l5.115 8.629c0.345 0.582 0.669 0.783 0.972 0.604v0l1.771-0.935 0.223 0.435c-0.968 0.774-1.865 1.407-2.693 1.897v0c-0.233 0.115-0.536 0.137-0.91 0.066-0.374-0.071-0.666-0.284-0.875-0.638zM181.804 228.304v0c1.392-0.826 2.578-2.188 3.558-4.088v0l-2.756-4.648c-2.759 1.759-4.43 2.974-5.013 3.643-0.586 0.664-0.869 1.325-0.849 1.984 0.026 0.656 0.185 1.229 0.476 1.72v0c0.054 0.091 0.11 0.185 0.167 0.282v0c0.63 0.945 1.339 1.478 2.127 1.597 0.779 0.117 1.542-0.046 2.29-0.49z" fill="#3d9970" data-fill-palette-color="accent"></path><path d="M213.292 201.695v0l0.812-0.996 0.311 0.145c-0.018 0.02-0.095 0.156-0.231 0.408v0c-0.325 0.591-0.757 1.188-1.297 1.79v0c-0.53 0.522-1.076 0.942-1.637 1.26-0.56 0.317-1.265 0.448-2.114 0.391-0.844-0.052-1.656-0.428-2.437-1.128v0l-8.567-7.677-1.116 1.245-0.02-0.365 0.74-1.274-2.169-2.292 1.11-1.477 2.438 2.185 2.644-2.95 0.437 0.392-2.643 2.95 8.153 7.305c1.235 1.107 2.3 1.593 3.195 1.46 0.895-0.134 1.692-0.591 2.391-1.372z" fill="#3d9970" data-fill-palette-color="accent"></path><path d="M222.226 175.011v0c4.295 1.95 7.201 1.254 8.717-2.087v0c0.398-0.876 0.729-1.855 0.994-2.937 0.256-1.079 0.37-1.795 0.343-2.15v0l0.393-0.073c0.088 0.594-0.006 1.458-0.281 2.594-0.275 1.136-0.609 2.135-1 2.999-0.392 0.864-0.832 1.6-1.32 2.209-0.494 0.606-1.132 1.162-1.915 1.667-0.785 0.51-1.759 0.753-2.921 0.729-1.162-0.025-2.45-0.358-3.863-1v0c-2.628-1.193-4.33-2.781-5.105-4.765v0c-0.808-2.072-0.789-4.041 0.058-5.908 0.85-1.873 2.015-3.067 3.496-3.583 1.48-0.516 3.156-0.349 5.029 0.502v0c0.393 0.178 0.805 0.402 1.236 0.67v0l-4.837 10.657c0.209 0.117 0.534 0.275 0.976 0.476zM223.831 164.876v0c-1.486-0.675-2.852-0.901-4.096-0.679-1.241 0.231-2.118 0.911-2.631 2.041v0c-0.669 1.474-0.588 3.012 0.244 4.613v0c0.645 1.276 1.768 2.398 3.369 3.366v0l4.035-8.89c-0.215-0.12-0.522-0.27-0.921-0.451z" fill="#3d9970" data-fill-palette-color="accent"></path><path d="M2.556 125.406c0-4.846 3.928-8.774 8.774-8.774 4.846 0 8.774 3.928 8.774 8.774 0 4.846-3.928 8.774-8.774 8.774-4.846 0-8.774-3.928-8.774-8.774z" fill="#3d9970" data-fill-palette-color="accent"></path><path d="M224.343 125.406c0-4.846 3.928-8.774 8.774-8.774 4.846 0 8.774 3.928 8.774 8.774 0 4.846-3.928 8.774-8.774 8.774-4.846 0-8.774-3.928-8.774-8.774z" fill="#3d9970" data-fill-palette-color="accent"></path></g><g id="text-1"></g></svg></g></svg></g></svg></g><defs></defs></svg><rect width="395.52" height="141.35486298949542" fill="none" stroke="none" visibility="hidden"></rect></g></svg></g></svg>