<svg xmlns="http://www.w3.org/2000/svg" version="1.1" xmlns:xlink="http://www.w3.org/1999/xlink" xmlns:svgjs="http://svgjs.dev/svgjs" width="2000" height="1999" viewBox="0 0 2000 1999"><g transform="matrix(1,0,0,1,-0.431486880466764,-0.4312711370263287)"><svg viewBox="0 0 343 343" data-background-color="#f9f6ed" preserveAspectRatio="xMidYMid meet" height="1999" width="2000" xmlns="http://www.w3.org/2000/svg" xmlns:xlink="http://www.w3.org/1999/xlink"><g id="tight-bounds" transform="matrix(1,0,0,1,0.0740000000000407,0.07400000000001228)"><svg viewBox="0 0 342.85155851775386 342.85155851775386" height="342.85155851775386" width="342.85155851775386"><g><svg></svg></g><g><svg viewBox="0 0 342.85155851775386 342.85155851775386" height="342.85155851775386" width="342.85155851775386"><g><path d="M0 171.426c0-94.676 76.75-171.426 171.426-171.426 94.676 0 171.426 76.75 171.426 171.426 0 94.676-76.75 171.426-171.426 171.426-94.676 0-171.426-76.75-171.426-171.426zM171.426 339.601c92.881 0 168.175-75.295 168.175-168.175 0-92.881-75.295-168.175-168.175-168.176-92.881 0-168.175 75.295-168.176 168.176 0 92.881 75.295 168.175 168.176 168.175z" data-fill-palette-color="tertiary" fill="#3d9970" stroke="transparent"></path><ellipse rx="164.56874808852186" ry="164.56874808852186" cx="171.42577925887693" cy="171.42577925887693" fill="#3d9970" stroke="transparent" stroke-width="0" fill-opacity="1" data-fill-palette-color="tertiary"></ellipse></g><g transform="matrix(1,0,0,1,64.84655864529837,99.33743675987996)"><svg viewBox="0 0 213.1584412271571 144.17668499799393" height="144.17668499799393" width="213.1584412271571"><g><svg viewBox="0 0 213.1584412271571 144.17668499799393" height="144.17668499799393" width="213.1584412271571"><g><svg viewBox="0 0 213.1584412271571 144.17668499799393" height="144.17668499799393" width="213.1584412271571"><g transform="matrix(1,0,0,1,0,108.13319857473749)"><svg viewBox="0 0 213.1584412271571 36.04348642325644" height="36.04348642325644" width="213.1584412271571"><g id="textblocktransform"><svg viewBox="0 0 213.1584412271571 36.04348642325644" height="36.04348642325644" width="213.1584412271571" id="textblock"><g><svg viewBox="0 0 213.1584412271571 36.04348642325644" height="36.04348642325644" width="213.1584412271571"><g transform="matrix(1,0,0,1,0,0)"><svg width="213.1584412271571" viewBox="2.3 -39 233.57999999999998 39.5" height="36.04348642325644" data-palette-color="#f9f6ed"><path d="M24.1-4.8L24.3-4.8 33.85-36 46.05-36 46.05-33.6 41.85-32.55 41.85-3.45 46.05-2.4 46.05 0 32.7 0 32.7-2.4 36.35-3.45 36.35-32.5 26.45 0 20.15 0 10.25-32.5 10.25-3.45 13.9-2.4 13.9 0 2.3 0 2.3-2.4 6.5-3.45 6.5-32.55 2.3-33.6 2.3-36 14.7-36 24.1-4.8ZM53.85-3.25L53.85-23.75 50-24.7 50-27 59.2-27 59.2-3.25 63.05-2.3 63.05 0 50 0 50-2.3 53.85-3.25ZM53.2-34.9L53.2-34.9Q53.2-36.4 54.1-37.3 55-38.2 56.5-38.2L56.5-38.2Q58.05-38.2 58.95-37.3 59.85-36.4 59.85-34.9L59.85-34.9Q59.85-33.45 58.97-32.55 58.1-31.65 56.5-31.65L56.5-31.65Q54.95-31.65 54.07-32.52 53.2-33.4 53.2-34.9ZM65.9-2.3L69.75-3.25 69.75-23.75 65.9-24.7 65.9-27 73.6-27 74.7-22 74.9-22Q76.4-24.55 78.95-26.03 81.5-27.5 84.4-27.5L84.4-27.5Q88.55-27.5 90.55-24.8L90.55-24.8Q91.55-23.4 91.97-20.88 92.4-18.35 92.4-14.05L92.4-14.05 92.4-3.25 96.25-2.3 96.25 0 83.7 0 83.7-2.3 87.05-3.25 87.05-13.9Q87.05-17.05 86.87-18.68 86.7-20.3 86.25-21.25L86.25-21.25Q85.7-22.5 84.62-23.08 83.55-23.65 82.1-23.65L82.1-23.65Q79.35-23.65 77.35-21.9L77.35-21.9Q75.3-20 75.1-16.1L75.1-16.1 75.1-3.25 78.45-2.3 78.45 0 65.9 0 65.9-2.3ZM99.39-13.3L99.39-13.3Q99.39-16.6 100.27-19.53 101.14-22.45 102.79-24.25L102.79-24.25Q104.24-25.85 106.24-26.68 108.24-27.5 110.84-27.5L110.84-27.5Q113.09-27.5 114.89-26.65 116.69-25.8 118.14-23.6L118.14-23.6 118.14-35.75 114.29-36.7 114.29-39 123.49-39 123.49-3.25 127.34-2.3 127.34 0 119.09 0.5 118.69-3.6Q117.14-1.3 115.19-0.4 113.24 0.5 110.79 0.5L110.79 0.5Q108.19 0.5 106.19-0.28 104.19-1.05 102.84-2.65L102.84-2.65Q101.29-4.55 100.34-7.3 99.39-10.05 99.39-13.3ZM118.14-13.3L118.14-13.3Q118.14-16.3 117.69-18.53 117.24-20.75 116.44-22.05L116.44-22.05Q115.64-23.3 114.49-23.98 113.34-24.65 111.54-24.65L111.54-24.65Q110.04-24.65 108.77-24.08 107.49-23.5 106.74-22.3L106.74-22.3Q105.89-21.05 105.52-18.8 105.14-16.55 105.14-13.75L105.14-13.75Q105.14-10.75 105.59-8.55 106.04-6.35 106.79-5L106.79-5Q107.59-3.75 108.79-3.05 109.99-2.35 111.69-2.35L111.69-2.35Q113.24-2.35 114.49-2.9 115.74-3.45 116.44-4.65L116.44-4.65Q117.24-6 117.69-8.2 118.14-10.4 118.14-13.3ZM146.99-3L146.99-3Q151.24-3 153.26-5.13 155.29-7.25 155.29-11.4L155.29-11.4 155.29-14.4 151.09-15.45 151.09-17.95 164.99-17.95 164.99-15.45 160.79-14.4 160.79 0 157.69 0 156.44-3.95Q154.29-1.55 151.97-0.53 149.64 0.5 146.49 0.5L146.49 0.5Q139.64 0.5 135.54-3.7L135.54-3.7Q133.24-6.05 131.97-9.65 130.69-13.25 130.69-17.6L130.69-17.6Q130.69-22.05 132.01-25.88 133.34-29.7 135.74-32.2L135.74-32.2Q137.79-34.35 140.54-35.43 143.29-36.5 146.84-36.5L146.84-36.5Q149.84-36.5 151.91-35.63 153.99-34.75 155.84-32.65L155.84-32.65 156.94-36 160.19-36 160.19-24.7 156.64-24.7Q155.94-28.95 153.47-31.25 150.99-33.55 146.79-33.55L146.79-33.55Q144.34-33.55 142.69-32.75 141.04-31.95 139.84-30.3L139.84-30.3Q138.44-28.2 137.59-25.05 136.74-21.9 136.74-18.3L136.74-18.3Q136.74-14.65 137.62-11.48 138.49-8.3 140.09-6.1L140.09-6.1Q141.29-4.5 142.97-3.75 144.64-3 146.99-3ZM167.79-5.85L167.79-5.85Q167.79-9.85 171.49-12.1 175.19-14.35 183.54-15.6L183.54-15.6Q183.34-18.4 182.99-19.95 182.64-21.5 182.09-22.5L182.09-22.5Q181.44-23.75 180.29-24.4 179.14-25.05 177.69-25.05L177.69-25.05Q176.39-25.05 175.34-24.58 174.29-24.1 173.94-23.3L173.94-23.3Q174.64-22.85 174.94-22.08 175.24-21.3 175.24-20.65L175.24-20.65Q175.24-19.4 174.34-18.6 173.44-17.8 172.09-17.8L172.09-17.8Q170.79-17.8 169.96-18.68 169.14-19.55 169.14-21L169.14-21Q169.14-23.1 170.59-24.55 172.04-26 174.29-26.75 176.54-27.5 178.79-27.5L178.79-27.5Q180.94-27.5 182.71-26.85 184.49-26.2 185.69-25.1L185.69-25.1Q189.04-21.85 189.04-14.05L189.04-14.05 189.04-7.05Q189.04-4.6 189.36-3.65 189.69-2.7 190.79-2.7L190.79-2.7 193.04-2.7 193.04-0.95Q189.14 0.5 186.99 0.5L186.99 0.5Q185.44 0.5 184.89-0.63 184.34-1.75 184.34-4.95L184.34-4.95 184.14-4.95Q182.59-2.4 180.04-0.95 177.49 0.5 174.54 0.5L174.54 0.5Q171.39 0.5 169.59-1.2 167.79-2.9 167.79-5.85ZM176.99-2.65L176.99-2.65Q178.24-2.65 179.69-3.38 181.14-4.1 182.14-5.35L182.14-5.35Q182.89-6.25 183.29-7.6 183.69-8.95 183.69-10.8L183.69-10.8Q183.69-11.55 183.64-12.35 183.59-13.15 183.49-13.9L183.49-13.9Q179.64-13.1 177.46-12.2 175.29-11.3 174.36-10.05 173.44-8.8 173.44-7L173.44-7Q173.44-4.85 174.44-3.75 175.44-2.65 176.99-2.65ZM198.34-24.25L193.49-24.25 193.49-26.3 198.34-27 198.99-33.25 203.69-33.95 203.69-27 210.09-27 210.09-24.25 203.69-24.25 203.69-6.9Q203.69-5.2 203.74-4.58 203.78-3.95 203.94-3.55L203.94-3.55Q204.09-3.2 204.49-3.08 204.89-2.95 205.78-2.95L205.78-2.95 209.28-2.95 209.28-1.25Q206.69-0.35 204.74 0.08 202.78 0.5 201.64 0.5L201.64 0.5Q199.39 0.5 198.74-1.35L198.74-1.35Q198.53-1.95 198.44-2.9 198.34-3.85 198.34-5.7L198.34-5.7 198.34-24.25ZM235.73-13.05L235.73-13.05 218.28-13.05Q218.28-9.5 219.28-7.15L219.28-7.15Q220.23-5.05 221.91-4.08 223.58-3.1 225.68-3.1L225.68-3.1Q227.98-3.1 230.01-4.08 232.03-5.05 233.58-6.85L233.58-6.85 235.53-5.35Q233.78-2.95 231.13-1.23 228.48 0.5 224.38 0.5L224.38 0.5Q220.88 0.5 218.23-0.98 215.58-2.45 214.18-5.3L214.18-5.3Q213.43-6.85 213.08-8.75 212.73-10.65 212.73-12.8L212.73-12.8Q212.73-19.8 215.96-23.65 219.18-27.5 224.83-27.5L224.83-27.5Q230.08-27.5 232.98-24.33 235.88-21.15 235.88-15.55L235.88-15.55Q235.88-15.05 235.86-14.58 235.83-14.1 235.73-13.05ZM224.63-24.55L224.63-24.55Q218.88-24.55 218.33-15.75L218.33-15.75 230.33-15.75 230.33-17.3Q230.33-20.8 228.83-22.68 227.33-24.55 224.63-24.55Z" opacity="1" transform="matrix(1,0,0,1,0,0)" fill="#f9f6ed" class="wordmark-text-0" data-fill-palette-color="quaternary" id="text-0"></path></svg></g></svg></g></svg></g></svg></g><g transform="matrix(1,0,0,1,56.32342554428365,0)"><svg viewBox="0 0 100.51159013858981 99.6241964738808" height="99.6241964738808" width="100.51159013858981"><g><svg xmlns="http://www.w3.org/2000/svg" xmlns:xlink="http://www.w3.org/1999/xlink" version="1.1" x="0" y="0" viewBox="5.94 6.329 88.121 87.343" enable-background="new 0 0 100 100" xml:space="preserve" height="99.6241964738808" width="100.51159013858981" class="icon-icon-0" data-fill-palette-color="quaternary" id="icon-0"><g fill="#f9f6ed" data-fill-palette-color="quaternary"><path fill="none" d="M63.34 12.448v7.148H34.829l-4.803 4.79c-0.316-0.169-0.668-0.267-1.043-0.267-1.225 0-2.231 0.995-2.231 2.22 0 0.375 0.097 0.739 0.278 1.042l-8.404 8.404-0.002 0.002c-0.317-0.176-0.677-0.285-1.066-0.285-1.226 0-2.223 0.997-2.223 2.223 0 1.226 0.998 2.223 2.223 2.223s2.223-0.997 2.223-2.223c0-0.394-0.111-0.76-0.292-1.081l8.391-8.392c0.328 0.207 0.703 0.315 1.104 0.315 1.225 0 2.22-1.006 2.22-2.231 0-0.4-0.109-0.776-0.303-1.104l4.427-4.426h29.227v-8.362c0.93-0.266 1.615-1.114 1.615-2.127 0-1.226-0.996-2.223-2.223-2.223-1.226 0-2.223 0.997-2.223 2.223C61.723 11.333 62.409 12.182 63.34 12.448zM17.557 38.737c-0.557 0-1.01-0.453-1.01-1.01 0-0.558 0.454-1.011 1.01-1.011s1.01 0.453 1.01 1.011C18.567 38.284 18.114 38.737 17.557 38.737zM28.982 27.358c-0.061 0-0.121 0-0.182-0.024-0.436-0.073-0.776-0.437-0.825-0.885-0.012-0.037-0.012-0.073-0.012-0.109 0-0.559 0.461-1.007 1.019-1.007 0.037 0 0.061 0 0.097 0.012 0.461 0.037 0.824 0.376 0.885 0.825 0.025 0.06 0.025 0.109 0.025 0.17C29.989 26.897 29.541 27.358 28.982 27.358zM63.945 9.309c0.557 0 1.01 0.453 1.01 1.01s-0.453 1.01-1.01 1.01-1.01-0.453-1.01-1.01S63.389 9.309 63.945 9.309z"></path><path fill="none" d="M11.493 12.213v20.049l15.765-15.765H57.68v-4.049c0.93-0.266 1.617-1.114 1.617-2.128 0-1.226-0.997-2.223-2.223-2.223-1.227 0-2.223 0.997-2.223 2.223 0 1.014 0.686 1.862 1.615 2.128v2.836H26.756l-14.05 14.05V12.213c0.93-0.266 1.617-1.114 1.617-2.128 0-1.226-0.997-2.223-2.223-2.223-1.226 0-2.223 0.997-2.223 2.223C9.876 11.099 10.563 11.947 11.493 12.213zM56.063 10.319c0-0.557 0.454-1.01 1.011-1.01s1.01 0.453 1.01 1.01-0.453 1.01-1.01 1.01S56.063 10.876 56.063 10.319zM12.1 9.075c0.557 0 1.01 0.453 1.01 1.01 0 0.557-0.454 1.01-1.01 1.01s-1.01-0.453-1.01-1.01C11.089 9.527 11.543 9.075 12.1 9.075z"></path><path fill="none" d="M75.771 12.448v16.171H53.129c-0.255-0.934-1.104-1.613-2.123-1.613-1.018 0-1.867 0.679-2.122 1.613H39.23L18.517 49.345c-0.292-0.157-0.618-0.231-0.958-0.231-1.225 0-2.219 0.995-2.219 2.22 0 1.225 0.995 2.219 2.219 2.219s2.22-0.994 2.22-2.219c0-0.436-0.134-0.848-0.352-1.188L39.74 29.832h9.145c0.254 0.934 1.104 1.613 2.122 1.613 1.02 0 1.868-0.679 2.123-1.613h23.855V12.447c0.93-0.266 1.615-1.114 1.615-2.127 0-1.226-0.998-2.223-2.223-2.223-1.227 0-2.224 0.997-2.224 2.223C74.153 11.333 74.84 12.182 75.771 12.448zM17.558 52.34c-0.558 0-1.006-0.447-1.006-1.006 0-0.557 0.449-1.007 1.006-1.007 0.206 0 0.389 0.062 0.546 0.171h0.012c0.109 0.073 0.206 0.169 0.279 0.279 0 0 0.012 0.012 0.012 0.023 0.097 0.158 0.157 0.338 0.157 0.534C18.565 51.893 18.116 52.34 17.558 52.34zM51.807 29.832c-0.182 0.242-0.473 0.4-0.801 0.4-0.328 0-0.618-0.158-0.8-0.4C50.072 29.662 50 29.456 50 29.226s0.072-0.437 0.206-0.606c0.182-0.243 0.472-0.4 0.8-0.4 0.328 0 0.619 0.158 0.801 0.4 0.133 0.169 0.207 0.376 0.207 0.606S51.939 29.662 51.807 29.832zM76.377 9.309c0.557 0 1.01 0.453 1.01 1.01s-0.453 1.01-1.01 1.01-1.012-0.453-1.012-1.01S75.82 9.309 76.377 9.309z"></path><path fill="none" d="M89.191 85.373c-1.014 0-1.863 0.688-2.127 1.617H60.723c-0.266-0.93-1.114-1.617-2.128-1.617-1.226 0-2.224 0.996-2.224 2.223s0.998 2.223 2.224 2.223c1.014 0 1.862-0.688 2.128-1.617h26.342c0.264 0.93 1.113 1.617 2.127 1.617 1.227 0 2.223-0.996 2.223-2.223S90.418 85.373 89.191 85.373zM58.595 88.605c-0.557 0-1.011-0.453-1.011-1.01s0.454-1.01 1.011-1.01 1.011 0.453 1.011 1.01S59.151 88.605 58.595 88.605zM89.191 88.605c-0.523 0-0.941-0.406-0.99-0.916v-0.188c0.049-0.51 0.467-0.916 0.99-0.916 0.557 0 1.012 0.453 1.012 1.01S89.748 88.605 89.191 88.605z"></path><path fill="none" d="M37.229 23.926L18.408 42.759c-0.328-0.206-0.704-0.314-1.116-0.314-1.226 0-2.22 0.994-2.22 2.219s0.994 2.22 2.22 2.22c1.225 0 2.219-0.995 2.219-2.22 0-0.376-0.097-0.728-0.268-1.03l18.495-18.495h27.846c0.279 0.885 1.115 1.528 2.098 1.528s1.819-0.643 2.098-1.528h1.747V12.447c0.93-0.266 1.615-1.114 1.615-2.127 0-1.226-0.997-2.223-2.223-2.223s-2.224 0.997-2.224 2.223c0 1.014 0.688 1.863 1.618 2.129v11.478h-0.485c-0.23-0.97-1.103-1.698-2.146-1.698-1.043 0-1.916 0.728-2.146 1.698H37.229zM17.292 45.67c-0.558 0-1.007-0.448-1.007-1.007 0-0.557 0.449-1.006 1.007-1.006 0.558 0 1.006 0.449 1.006 1.006C18.298 45.222 17.85 45.67 17.292 45.67zM69.908 10.319c0-0.557 0.454-1.01 1.011-1.01s1.011 0.453 1.011 1.01-0.454 1.01-1.011 1.01S69.908 10.876 69.908 10.319zM66.82 23.926c0.17-0.292 0.498-0.485 0.861-0.485s0.691 0.194 0.861 0.485c0.098 0.157 0.146 0.327 0.146 0.521 0 0.267-0.108 0.509-0.267 0.691-0.193 0.194-0.449 0.315-0.74 0.315s-0.545-0.121-0.74-0.315c-0.157-0.182-0.266-0.424-0.266-0.691C66.676 24.253 66.724 24.083 66.82 23.926z"></path><path fill="none" d="M20.565 77.287c0.256 0.934 1.104 1.613 2.122 1.613 1.02 0 1.868-0.68 2.123-1.613h15.38c0.265 0.93 1.114 1.617 2.128 1.617 1.226 0 2.223-0.998 2.223-2.223 0-1.227-0.997-2.225-2.223-2.225-1.014 0-1.863 0.688-2.128 1.617H24.81c-0.255-0.934-1.103-1.613-2.123-1.613-1.019 0-1.866 0.68-2.122 1.613h-9.071v7.482h32.49l6.27-6.27h22.605c0.265 0.93 1.113 1.617 2.127 1.617 1.227 0 2.225-0.998 2.225-2.223 0-1.227-0.998-2.225-2.225-2.225-1.014 0-1.862 0.688-2.127 1.617H49.745l-6.258 6.27h-30.78v-5.057H20.565zM42.318 75.67c0.557 0 1.01 0.455 1.01 1.012s-0.454 1.01-1.01 1.01-1.01-0.453-1.01-1.01S41.762 75.67 42.318 75.67zM21.888 76.074c0.181-0.242 0.473-0.4 0.799-0.4 0.328 0 0.62 0.158 0.801 0.4 0.134 0.17 0.206 0.377 0.206 0.607 0 0.229-0.072 0.436-0.206 0.605-0.181 0.242-0.473 0.4-0.801 0.4-0.327 0-0.618-0.158-0.799-0.4-0.134-0.17-0.206-0.377-0.206-0.605C21.682 76.451 21.754 76.244 21.888 76.074zM74.049 76.324c0.146-0.381 0.508-0.654 0.938-0.654 0.557 0 1.012 0.455 1.012 1.012s-0.455 1.01-1.012 1.01c-0.43 0-0.791-0.273-0.938-0.654V76.324z"></path><path fill="none" d="M62.527 46.871h-3.262c-0.146-1.08-1.08-1.904-2.195-1.904s-2.037 0.824-2.183 1.904h-11.51L21.451 68.799h-8.744V43.415c0.934-0.255 1.613-1.104 1.613-2.122 0-1.225-0.995-2.231-2.219-2.231s-2.22 1.007-2.22 2.231c0 1.019 0.679 1.867 1.613 2.122V70.01h10.454l21.927-21.926h11.169c0.34 0.789 1.115 1.334 2.025 1.334s1.686-0.545 2.025-1.334h2.219v5.76h-6.912c-0.207-1.006-1.116-1.77-2.184-1.77-1.224 0-2.219 0.994-2.219 2.219 0 0.861 0.497 1.613 1.213 1.965v16.178H30.244l14.093-14.104v8.604c-0.824 0.324-1.412 1.125-1.412 2.064 0 1.227 0.998 2.223 2.223 2.223 1.226 0 2.223-0.996 2.223-2.223 0-1.088-0.788-1.992-1.822-2.182v-11.41l-18.24 18.24h25.117V56.5c0.873-0.072 1.601-0.654 1.879-1.443h8.223V46.871zM11.094 41.292c0-0.559 0.449-1.019 1.007-1.019 0.558 0 1.006 0.46 1.006 1.019 0 0.558-0.449 1.006-1.006 1.006C11.543 42.298 11.094 41.85 11.094 41.292zM57.543 48.083c-0.146 0.073-0.303 0.121-0.473 0.121s-0.328-0.035-0.461-0.121c-0.328-0.157-0.546-0.509-0.546-0.897 0-0.109 0.013-0.218 0.061-0.315 0.122-0.4 0.497-0.691 0.946-0.691s0.824 0.291 0.958 0.691c0.036 0.098 0.061 0.206 0.061 0.315C58.089 47.575 57.871 47.914 57.543 48.083zM45.147 67.99c0.557 0 1.01 0.453 1.01 1.01 0 0.559-0.454 1.01-1.01 1.01s-1.01-0.451-1.01-1.01C44.137 68.443 44.591 67.99 45.147 67.99zM52.887 55.057c-0.121 0.109-0.292 0.195-0.461 0.23-0.072 0.014-0.135 0.025-0.207 0.025-0.557 0-1.006-0.461-1.006-1.02 0-0.158 0.037-0.316 0.121-0.449 0.145-0.326 0.484-0.557 0.885-0.557s0.74 0.23 0.91 0.557c0.072 0.133 0.109 0.291 0.109 0.449C53.238 54.596 53.104 54.863 52.887 55.057z"></path><path fill="none" d="M75.553 47.029c0.256 0.097 0.533 0.157 0.824 0.157 1.225 0 2.221-0.995 2.221-2.22 0-1.019-0.68-1.867-1.613-2.121v-6.149H40.346L27.321 49.708c-0.327-0.183-0.691-0.291-1.091-0.291-1.226 0-2.232 0.995-2.232 2.219 0 0.4 0.11 0.766 0.303 1.092l-5.518 5.518-0.004 0.006c-0.352-0.232-0.77-0.369-1.221-0.369-1.226 0-2.223 0.998-2.223 2.223 0 1.227 0.998 2.223 2.223 2.223s2.223-0.996 2.223-2.223c0-0.332-0.078-0.643-0.208-0.924l5.603-5.604c0.315 0.182 0.667 0.277 1.055 0.277 1.225 0 2.218-0.994 2.218-2.219 0-0.375-0.096-0.739-0.278-1.054l12.674-12.674h34.928v4.937c-0.936 0.254-1.613 1.103-1.613 2.121 0 0.485 0.158 0.946 0.438 1.311l-8.284 8.284-0.007 0.006c-0.313-0.166-0.663-0.27-1.041-0.27-1.227 0-2.223 0.998-2.223 2.223 0 1.227 0.996 2.223 2.223 2.223 1.226 0 2.223-0.996 2.223-2.223 0-0.404-0.115-0.779-0.307-1.107l0.005-0.004L75.553 47.029zM17.557 61.117c-0.557 0-1.01-0.453-1.01-1.012 0-0.557 0.454-1.01 1.01-1.01s1.01 0.453 1.01 1.01C18.567 60.664 18.114 61.117 17.557 61.117zM26.23 52.643c-0.037 0-0.073 0-0.11-0.012-0.448-0.035-0.825-0.389-0.885-0.824-0.025-0.061-0.025-0.107-0.025-0.17 0-0.557 0.462-1.006 1.02-1.006 0.049 0 0.109 0 0.158 0.024 0.449 0.061 0.8 0.425 0.836 0.873 0.012 0.037 0.012 0.074 0.012 0.109C27.235 52.195 26.788 52.643 26.23 52.643zM75.771 44.166c0.168-0.132 0.375-0.206 0.605-0.206s0.438 0.074 0.607 0.206c0.242 0.183 0.4 0.475 0.4 0.801 0 0.462-0.316 0.85-0.74 0.972-0.084 0.023-0.17 0.035-0.268 0.035-0.4 0-0.752-0.241-0.896-0.581-0.072-0.134-0.109-0.267-0.109-0.426C75.371 44.64 75.527 44.348 75.771 44.166zM65.264 57.529c-0.557 0-1.01-0.453-1.01-1.01s0.453-1.01 1.01-1.01c0.185 0 0.348 0.063 0.496 0.148l0.363 0.363c0.087 0.148 0.15 0.313 0.15 0.498C66.273 57.076 65.82 57.529 65.264 57.529z"></path><path fill="none" d="M89.191 69c-1.014 0-1.863 0.688-2.127 1.617H60.514v-9.096h7.52l13.268-13.267c0.242 0.097 0.498 0.145 0.777 0.145 1.225 0 2.23-0.995 2.23-2.22 0-0.995-0.654-1.843-1.564-2.11v-15.62c0.91-0.267 1.564-1.116 1.564-2.11 0-0.995-0.654-1.832-1.564-2.111V12.487c0.996-0.221 1.742-1.107 1.742-2.167 0-1.226-0.996-2.223-2.223-2.223s-2.223 0.997-2.223 2.223c0 0.968 0.625 1.785 1.49 2.089v11.784c-0.957 0.243-1.674 1.116-1.674 2.147 0 1.03 0.717 1.916 1.674 2.146v15.548c-0.957 0.229-1.674 1.115-1.674 2.146 0 0.51 0.17 0.972 0.461 1.347L67.536 60.309h-8.234V71.83H77.59v10.006h-22.69l-3.833 3.832c-0.314-0.195-0.678-0.291-1.066-0.291-1.019 0-1.868 0.68-2.123 1.613H12.97c-0.265-0.93-1.114-1.617-2.128-1.617-1.226 0-2.223 0.996-2.223 2.223s0.997 2.223 2.223 2.223c1.014 0 1.863-0.688 2.128-1.617h34.907c0.255 0.934 1.104 1.613 2.123 1.613 1.225 0 2.219-0.994 2.219-2.219 0-0.389-0.097-0.752-0.291-1.066l3.48-3.482h23.395V71.83h8.262c0.264 0.93 1.113 1.617 2.127 1.617 1.227 0 2.223-0.998 2.223-2.225C91.414 69.998 90.418 69 89.191 69zM81.254 10.319c0-0.557 0.453-1.01 1.01-1.01s1.01 0.453 1.01 1.01-0.453 1.01-1.01 1.01S81.254 10.876 81.254 10.319zM81.07 26.339c0-0.352 0.182-0.667 0.461-0.849 0.158-0.097 0.352-0.158 0.547-0.158 0.254 0 0.484 0.097 0.666 0.255 0.219 0.182 0.352 0.449 0.352 0.752s-0.133 0.569-0.352 0.764c-0.182 0.158-0.412 0.255-0.666 0.255-0.195 0-0.389-0.061-0.547-0.158C81.252 27.006 81.07 26.69 81.07 26.339zM81.531 45.332c0.158-0.109 0.352-0.171 0.547-0.171 0.254 0 0.484 0.098 0.666 0.256 0.219 0.193 0.352 0.46 0.352 0.763 0 0.438-0.279 0.801-0.666 0.946-0.109 0.037-0.23 0.061-0.352 0.061-0.377 0-0.715-0.218-0.887-0.533-0.072-0.146-0.121-0.303-0.121-0.474C81.07 45.829 81.252 45.512 81.531 45.332zM10.842 88.605c-0.557 0-1.01-0.453-1.01-1.01s0.454-1.01 1.01-1.01 1.01 0.453 1.01 1.01S11.398 88.605 10.842 88.605zM50 88.602c-0.328 0-0.619-0.156-0.801-0.4-0.134-0.17-0.206-0.375-0.206-0.605s0.072-0.436 0.206-0.605c0.182-0.244 0.473-0.4 0.801-0.4 0.048 0 0.085 0 0.134 0.012 0.448 0.061 0.799 0.412 0.861 0.861 0.011 0.047 0.011 0.084 0.011 0.133C51.006 88.154 50.558 88.602 50 88.602zM89.191 72.234c-0.521 0-0.938-0.404-0.99-0.912v-0.199c0.053-0.508 0.469-0.91 0.99-0.91 0.557 0 1.012 0.453 1.012 1.01S89.748 72.234 89.191 72.234z"></path><path fill="none" d="M87.365 12.447v36.559c-0.934 0.256-1.613 1.104-1.613 2.122 0 0.389 0.096 0.766 0.291 1.08L72.787 65.463h-7.618c-0.266-0.93-1.114-1.617-2.128-1.617-1.227 0-2.224 0.998-2.224 2.223 0 1.227 0.997 2.225 2.224 2.225 1.014 0 1.862-0.688 2.128-1.617h8.128l13.607-13.621c0.316 0.195 0.68 0.293 1.066 0.293 1.227 0 2.219-0.996 2.219-2.221 0-1.018-0.678-1.866-1.611-2.122V12.448c0.93-0.265 1.619-1.114 1.619-2.129 0-1.226-0.998-2.223-2.225-2.223-1.225 0-2.223 0.997-2.223 2.223C85.75 11.333 86.436 12.181 87.365 12.447zM63.947 66.498c-0.163 0.342-0.506 0.582-0.906 0.582-0.557 0-1.011-0.455-1.011-1.012s0.454-1.01 1.011-1.01c0.4 0 0.743 0.24 0.906 0.582V66.498zM88.979 51.127c0 0.559-0.449 1.008-1.008 1.008-0.049 0-0.084 0-0.133-0.012-0.449-0.061-0.801-0.4-0.861-0.85-0.012-0.049-0.012-0.096-0.012-0.146 0-0.327 0.158-0.618 0.4-0.8 0.17-0.133 0.375-0.206 0.605-0.206s0.438 0.073 0.607 0.206C88.82 50.509 88.979 50.8 88.979 51.127zM87.973 9.309c0.557 0 1.012 0.453 1.012 1.01s-0.455 1.01-1.012 1.01-1.01-0.453-1.01-1.01S87.416 9.309 87.973 9.309z"></path><path fill="none" d="M90.424 57.277c0-1.225-0.998-2.223-2.223-2.223-1.227 0-2.223 0.998-2.223 2.223 0 1.014 0.686 1.861 1.615 2.129v4.838c-0.93 0.266-1.615 1.115-1.615 2.129 0 1.225 0.996 2.223 2.223 2.223 1.225 0 2.223-0.998 2.223-2.223 0-1.014-0.688-1.863-1.617-2.129v-4.838C89.736 59.139 90.424 58.291 90.424 57.277zM89.211 66.373c0 0.557-0.453 1.01-1.01 1.01s-1.01-0.453-1.01-1.01c0-0.406 0.242-0.75 0.586-0.91h0.848C88.969 65.623 89.211 65.967 89.211 66.373zM88.201 58.287c-0.557 0-1.01-0.453-1.01-1.01s0.453-1.01 1.01-1.01 1.01 0.453 1.01 1.01S88.758 58.287 88.201 58.287z"></path><path d="M65.76 55.658c-0.148-0.086-0.312-0.148-0.496-0.148-0.557 0-1.01 0.453-1.01 1.01s0.453 1.01 1.01 1.01 1.01-0.453 1.01-1.01c0-0.186-0.063-0.35-0.15-0.498L65.76 55.658z" fill="#f9f6ed" data-fill-palette-color="quaternary"></path><circle cx="42.318" cy="76.681" r="1.0" fill="#f9f6ed" data-fill-palette-color="quaternary"></circle><path d="M76.377 45.973c0.098 0 0.184-0.012 0.268-0.035 0.424-0.122 0.74-0.51 0.74-0.972 0-0.326-0.158-0.618-0.4-0.801-0.17-0.132-0.377-0.206-0.607-0.206s-0.438 0.074-0.605 0.206c-0.244 0.183-0.4 0.475-0.4 0.801 0 0.159 0.037 0.292 0.109 0.426C75.625 45.732 75.977 45.973 76.377 45.973z" fill="#f9f6ed" data-fill-palette-color="quaternary"></path><path d="M22.688 77.688c0.328 0 0.62-0.158 0.801-0.4 0.134-0.17 0.206-0.377 0.206-0.605 0-0.23-0.072-0.438-0.206-0.607-0.181-0.242-0.473-0.4-0.801-0.4-0.327 0-0.618 0.158-0.799 0.4-0.134 0.17-0.206 0.377-0.206 0.607 0 0.229 0.072 0.436 0.206 0.605C22.069 77.529 22.361 77.688 22.688 77.688z" fill="#f9f6ed" data-fill-palette-color="quaternary"></path><path d="M52.219 53.287c-0.4 0-0.74 0.23-0.885 0.557-0.084 0.133-0.121 0.291-0.121 0.449 0 0.559 0.449 1.02 1.006 1.02 0.072 0 0.135-0.012 0.207-0.025 0.169-0.035 0.34-0.121 0.461-0.23 0.217-0.193 0.352-0.461 0.352-0.764 0-0.158-0.037-0.316-0.109-0.449C52.959 53.518 52.619 53.287 52.219 53.287z" fill="#f9f6ed" data-fill-palette-color="quaternary"></path><path d="M57.07 46.179c-0.449 0-0.824 0.291-0.946 0.691-0.048 0.098-0.061 0.206-0.061 0.315 0 0.389 0.218 0.74 0.546 0.897 0.133 0.086 0.291 0.121 0.461 0.121s0.326-0.048 0.473-0.121c0.328-0.17 0.546-0.509 0.546-0.897 0-0.109-0.024-0.218-0.061-0.315C57.895 46.47 57.52 46.179 57.07 46.179z" fill="#f9f6ed" data-fill-palette-color="quaternary"></path><path d="M74.986 77.691c0.557 0 1.012-0.453 1.012-1.01s-0.455-1.012-1.012-1.012c-0.43 0-0.791 0.273-0.938 0.654v0.713C74.195 77.418 74.557 77.691 74.986 77.691z" fill="#f9f6ed" data-fill-palette-color="quaternary"></path><path d="M13.107 41.292c0-0.559-0.449-1.019-1.006-1.019-0.558 0-1.007 0.46-1.007 1.019 0 0.558 0.449 1.006 1.007 1.006C12.659 42.298 13.107 41.85 13.107 41.292z" fill="#f9f6ed" data-fill-palette-color="quaternary"></path><path d="M26.388 50.655c-0.049-0.024-0.109-0.024-0.158-0.024-0.558 0-1.02 0.45-1.02 1.006 0 0.063 0 0.109 0.025 0.17 0.06 0.436 0.437 0.789 0.885 0.824 0.037 0.012 0.073 0.012 0.11 0.012 0.558 0 1.005-0.447 1.005-1.006 0-0.035 0-0.072-0.012-0.109C27.188 51.08 26.836 50.715 26.388 50.655z" fill="#f9f6ed" data-fill-palette-color="quaternary"></path><circle cx="45.147" cy="69" r="1.0" fill="#f9f6ed" data-fill-palette-color="quaternary"></circle><circle cx="17.557" cy="60.106" r="1.0" fill="#f9f6ed" data-fill-palette-color="quaternary"></circle><path d="M63.041 65.059c-0.557 0-1.011 0.453-1.011 1.01s0.454 1.012 1.011 1.012c0.4 0 0.743-0.24 0.906-0.582v-0.857C63.784 65.299 63.441 65.059 63.041 65.059z" fill="#f9f6ed" data-fill-palette-color="quaternary"></path><circle cx="58.595" cy="87.596" r="1.0" fill="#f9f6ed" data-fill-palette-color="quaternary"></circle><path d="M87.777 65.463c-0.344 0.16-0.586 0.504-0.586 0.91 0 0.557 0.453 1.01 1.01 1.01s1.01-0.453 1.01-1.01c0-0.406-0.242-0.75-0.586-0.91H87.777z" fill="#f9f6ed" data-fill-palette-color="quaternary"></path><circle cx="88.201" cy="57.277" r="1.0" fill="#f9f6ed" data-fill-palette-color="quaternary"></circle><path d="M87.971 50.121c-0.23 0-0.436 0.073-0.605 0.206-0.242 0.183-0.4 0.474-0.4 0.8 0 0.051 0 0.098 0.012 0.146 0.061 0.449 0.412 0.789 0.861 0.85 0.049 0.012 0.084 0.012 0.133 0.012 0.559 0 1.008-0.449 1.008-1.008 0-0.327-0.158-0.618-0.4-0.8C88.408 50.194 88.201 50.121 87.971 50.121z" fill="#f9f6ed" data-fill-palette-color="quaternary"></path><path d="M89.191 86.586c-0.523 0-0.941 0.406-0.99 0.916v0.188c0.049 0.51 0.467 0.916 0.99 0.916 0.557 0 1.012-0.453 1.012-1.01S89.748 86.586 89.191 86.586z" fill="#f9f6ed" data-fill-palette-color="quaternary"></path><path d="M51.006 28.219c-0.328 0-0.618 0.158-0.8 0.4C50.072 28.789 50 28.995 50 29.226s0.072 0.437 0.206 0.606c0.182 0.242 0.472 0.4 0.8 0.4 0.328 0 0.619-0.158 0.801-0.4 0.133-0.17 0.207-0.376 0.207-0.606s-0.074-0.437-0.207-0.606C51.625 28.376 51.334 28.219 51.006 28.219z" fill="#f9f6ed" data-fill-palette-color="quaternary"></path><path d="M18.396 50.777c-0.073-0.11-0.17-0.206-0.279-0.279h-0.012c-0.158-0.109-0.34-0.171-0.546-0.171-0.558 0-1.006 0.45-1.006 1.007 0 0.559 0.449 1.006 1.006 1.006 0.558 0 1.007-0.447 1.007-1.006 0-0.195-0.061-0.375-0.157-0.534C18.408 50.789 18.396 50.777 18.396 50.777z" fill="#f9f6ed" data-fill-palette-color="quaternary"></path><circle cx="87.973" cy="10.319" r="1.0" fill="#f9f6ed" data-fill-palette-color="quaternary"></circle><circle cx="76.377" cy="10.319" r="1.0" fill="#f9f6ed" data-fill-palette-color="quaternary"></circle><circle cx="57.074" cy="10.319" r="1.0" fill="#f9f6ed" data-fill-palette-color="quaternary"></circle><path d="M82.078 27.358c0.254 0 0.484-0.097 0.666-0.255 0.219-0.194 0.352-0.46 0.352-0.764s-0.133-0.57-0.352-0.752c-0.182-0.158-0.412-0.255-0.666-0.255-0.195 0-0.389 0.061-0.547 0.158-0.279 0.182-0.461 0.497-0.461 0.849 0 0.351 0.182 0.667 0.461 0.861C81.689 27.297 81.883 27.358 82.078 27.358z" fill="#f9f6ed" data-fill-palette-color="quaternary"></path><path d="M82.078 47.186c0.121 0 0.242-0.023 0.352-0.061 0.387-0.146 0.666-0.509 0.666-0.946 0-0.303-0.133-0.569-0.352-0.763-0.182-0.158-0.412-0.256-0.666-0.256-0.195 0-0.389 0.062-0.547 0.171-0.279 0.181-0.461 0.497-0.461 0.848 0 0.171 0.049 0.328 0.121 0.474C81.363 46.968 81.701 47.186 82.078 47.186z" fill="#f9f6ed" data-fill-palette-color="quaternary"></path><path d="M89.191 70.213c-0.521 0-0.938 0.402-0.99 0.91v0.199c0.053 0.508 0.469 0.912 0.99 0.912 0.557 0 1.012-0.455 1.012-1.012S89.748 70.213 89.191 70.213z" fill="#f9f6ed" data-fill-palette-color="quaternary"></path><circle cx="12.1" cy="10.085" r="1.0" fill="#f9f6ed" data-fill-palette-color="quaternary"></circle><circle cx="82.264" cy="10.319" r="1.0" fill="#f9f6ed" data-fill-palette-color="quaternary"></circle><path d="M50.134 86.602C50.085 86.59 50.048 86.59 50 86.59c-0.328 0-0.619 0.156-0.801 0.4-0.134 0.17-0.206 0.375-0.206 0.605s0.072 0.436 0.206 0.605c0.182 0.244 0.473 0.4 0.801 0.4 0.558 0 1.006-0.447 1.006-1.006 0-0.049 0-0.086-0.011-0.133C50.933 87.014 50.582 86.662 50.134 86.602z" fill="#f9f6ed" data-fill-palette-color="quaternary"></path><circle cx="10.842" cy="87.596" r="1.0" fill="#f9f6ed" data-fill-palette-color="quaternary"></circle><path d="M67.682 25.453c0.291 0 0.547-0.121 0.74-0.315 0.158-0.182 0.267-0.424 0.267-0.691 0-0.194-0.048-0.364-0.146-0.521-0.17-0.292-0.498-0.485-0.861-0.485s-0.691 0.194-0.861 0.485c-0.097 0.157-0.145 0.327-0.145 0.521 0 0.267 0.108 0.509 0.266 0.691C67.137 25.333 67.391 25.453 67.682 25.453z" fill="#f9f6ed" data-fill-palette-color="quaternary"></path><path d="M29.08 25.344c-0.037-0.012-0.061-0.012-0.097-0.012-0.558 0-1.019 0.448-1.019 1.007 0 0.036 0 0.072 0.012 0.109 0.049 0.449 0.389 0.813 0.825 0.885 0.062 0.024 0.122 0.024 0.182 0.024 0.558 0 1.007-0.461 1.007-1.019 0-0.061 0-0.11-0.025-0.17C29.904 25.72 29.541 25.381 29.08 25.344z" fill="#f9f6ed" data-fill-palette-color="quaternary"></path><circle cx="17.557" cy="37.727" r="1.0" fill="#f9f6ed" data-fill-palette-color="quaternary"></circle><circle cx="63.945" cy="10.319" r="1.0" fill="#f9f6ed" data-fill-palette-color="quaternary"></circle><circle cx="70.919" cy="10.319" r="1.0" fill="#f9f6ed" data-fill-palette-color="quaternary"></circle><path d="M17.292 43.658c-0.558 0-1.007 0.449-1.007 1.006 0 0.559 0.449 1.007 1.007 1.007 0.558 0 1.006-0.448 1.006-1.007C18.298 44.107 17.85 43.658 17.292 43.658z" fill="#f9f6ed" data-fill-palette-color="quaternary"></path><path d="M5.94 6.329v87.343h88.121V6.329H5.94zM90.424 66.373c0 1.225-0.998 2.223-2.223 2.223-1.227 0-2.223-0.998-2.223-2.223 0-1.014 0.686-1.863 1.615-2.129v-4.838c-0.93-0.268-1.615-1.115-1.615-2.129 0-1.225 0.996-2.223 2.223-2.223 1.225 0 2.223 0.998 2.223 2.223 0 1.014-0.688 1.861-1.617 2.129v4.838C89.736 64.51 90.424 65.359 90.424 66.373zM87.973 8.096c1.227 0 2.225 0.997 2.225 2.223 0 1.015-0.689 1.864-1.619 2.129v36.557c0.934 0.256 1.611 1.104 1.611 2.122 0 1.225-0.992 2.221-2.219 2.221-0.387 0-0.75-0.098-1.066-0.293L73.297 66.676h-8.128c-0.266 0.93-1.114 1.617-2.128 1.617-1.227 0-2.224-0.998-2.224-2.225 0-1.225 0.997-2.223 2.224-2.223 1.014 0 1.862 0.688 2.128 1.617h7.618l13.256-13.256c-0.195-0.314-0.291-0.691-0.291-1.08 0-1.018 0.68-1.866 1.613-2.122V12.447c-0.93-0.266-1.615-1.114-1.615-2.127C85.75 9.093 86.748 8.096 87.973 8.096zM76.377 8.096c1.225 0 2.223 0.997 2.223 2.223 0 1.014-0.686 1.862-1.615 2.127v17.385H53.129c-0.255 0.934-1.104 1.613-2.123 1.613-1.018 0-1.867-0.679-2.122-1.613H39.74L19.426 50.146c0.218 0.34 0.352 0.752 0.352 1.188 0 1.225-0.995 2.219-2.22 2.219s-2.219-0.994-2.219-2.219c0-1.225 0.995-2.22 2.219-2.22 0.34 0 0.667 0.074 0.958 0.231L39.23 28.619h9.654c0.254-0.934 1.104-1.613 2.122-1.613 1.02 0 1.868 0.679 2.123 1.613h22.643V12.448c-0.932-0.266-1.618-1.115-1.618-2.129C74.153 9.093 75.15 8.096 76.377 8.096zM67.486 56.52c0 1.227-0.997 2.223-2.223 2.223-1.227 0-2.223-0.996-2.223-2.223 0-1.225 0.996-2.223 2.223-2.223 0.378 0 0.729 0.104 1.041 0.27l0.007-0.006 8.284-8.284c-0.279-0.364-0.438-0.825-0.438-1.311 0-1.019 0.678-1.867 1.613-2.121v-4.937H40.844L28.17 50.583c0.183 0.315 0.278 0.679 0.278 1.054 0 1.225-0.994 2.219-2.218 2.219-0.388 0-0.74-0.096-1.055-0.277l-5.603 5.604c0.13 0.281 0.208 0.592 0.208 0.924 0 1.227-0.998 2.223-2.223 2.223s-2.223-0.996-2.223-2.223c0-1.225 0.998-2.223 2.223-2.223 0.451 0 0.869 0.137 1.221 0.369l0.004-0.006 5.518-5.518c-0.193-0.326-0.303-0.691-0.303-1.092 0-1.224 1.007-2.219 2.232-2.219 0.399 0 0.764 0.108 1.091 0.291l13.025-13.013h36.638v6.149c0.934 0.254 1.613 1.103 1.613 2.121 0 1.225-0.996 2.22-2.221 2.22-0.291 0-0.568-0.061-0.824-0.157l-8.368 8.379-0.005 0.004C67.371 55.74 67.486 56.115 67.486 56.52zM43.487 82.344l6.258-6.27h23.114c0.265-0.93 1.113-1.617 2.127-1.617 1.227 0 2.225 0.998 2.225 2.225 0 1.225-0.998 2.223-2.225 2.223-1.014 0-1.862-0.688-2.127-1.617H50.254l-6.27 6.27h-32.49v-7.482h9.071c0.256-0.934 1.104-1.613 2.122-1.613 1.02 0 1.868 0.68 2.123 1.613h15.38c0.265-0.93 1.114-1.617 2.128-1.617 1.226 0 2.223 0.998 2.223 2.225 0 1.225-0.997 2.223-2.223 2.223-1.014 0-1.863-0.688-2.128-1.617H24.81c-0.255 0.934-1.103 1.613-2.123 1.613-1.019 0-1.866-0.68-2.122-1.613h-7.858v5.057H43.487zM52.426 56.5v17.148H27.309l18.24-18.24v11.41c1.034 0.189 1.822 1.094 1.822 2.182 0 1.227-0.997 2.223-2.223 2.223-1.226 0-2.223-0.996-2.223-2.223 0-0.939 0.588-1.74 1.412-2.064v-8.604L30.244 72.436h20.969V56.258C50.497 55.906 50 55.154 50 54.293c0-1.225 0.995-2.219 2.219-2.219 1.067 0 1.977 0.764 2.184 1.77h6.912v-5.76h-2.219c-0.34 0.789-1.115 1.334-2.025 1.334s-1.686-0.545-2.025-1.334H43.875L21.949 70.01H11.495V43.415c-0.935-0.255-1.613-1.104-1.613-2.122 0-1.225 0.995-2.231 2.22-2.231s2.219 1.007 2.219 2.231c0 1.019-0.68 1.867-1.613 2.122v25.384h8.744l21.927-21.928h11.51c0.146-1.08 1.067-1.904 2.183-1.904s2.049 0.824 2.195 1.904h3.262v8.186h-8.223C54.026 55.846 53.299 56.428 52.426 56.5zM67.682 22.228c1.044 0 1.916 0.728 2.146 1.698h0.485V12.448c-0.931-0.266-1.618-1.115-1.618-2.129 0-1.226 0.998-2.223 2.224-2.223s2.223 0.997 2.223 2.223c0 1.014-0.686 1.862-1.615 2.127v12.691h-1.747c-0.278 0.885-1.115 1.528-2.098 1.528s-1.818-0.643-2.098-1.528H37.738L19.244 43.633c0.17 0.303 0.268 0.654 0.268 1.03 0 1.225-0.995 2.22-2.219 2.22-1.226 0-2.22-0.995-2.22-2.22s0.994-2.219 2.22-2.219c0.412 0 0.788 0.108 1.116 0.314l18.821-18.833h28.306C65.766 22.956 66.639 22.228 67.682 22.228zM63.945 8.096c1.227 0 2.223 0.997 2.223 2.223 0 1.014-0.686 1.862-1.615 2.127v8.362H35.326l-4.427 4.426c0.194 0.328 0.303 0.704 0.303 1.104 0 1.225-0.995 2.231-2.22 2.231-0.4 0-0.776-0.109-1.104-0.315l-8.391 8.392c0.181 0.321 0.292 0.687 0.292 1.081 0 1.226-0.998 2.223-2.223 2.223s-2.223-0.997-2.223-2.223c0-1.226 0.998-2.223 2.223-2.223 0.389 0 0.749 0.109 1.066 0.285l0.002-0.002 8.404-8.404c-0.181-0.303-0.278-0.667-0.278-1.042 0-1.225 1.007-2.22 2.231-2.22 0.375 0 0.727 0.097 1.043 0.267l4.803-4.79H63.34v-7.148c-0.931-0.266-1.617-1.115-1.617-2.129C61.723 9.093 62.72 8.096 63.945 8.096zM12.1 7.862c1.226 0 2.223 0.997 2.223 2.223 0 1.014-0.687 1.862-1.617 2.128v17.121l14.05-14.05h29.711v-2.836c-0.93-0.266-1.615-1.114-1.615-2.128 0-1.226 0.996-2.223 2.223-2.223 1.226 0 2.223 0.997 2.223 2.223 0 1.014-0.688 1.862-1.617 2.128v4.049H27.258L11.493 32.262V12.213c-0.93-0.266-1.617-1.114-1.617-2.128C9.876 8.859 10.874 7.862 12.1 7.862zM89.191 89.818c-1.014 0-1.863-0.688-2.127-1.617H60.723c-0.266 0.93-1.114 1.617-2.128 1.617-1.226 0-2.224-0.996-2.224-2.223s0.998-2.223 2.224-2.223c1.014 0 1.862 0.688 2.128 1.617h26.342c0.264-0.93 1.113-1.617 2.127-1.617 1.227 0 2.223 0.996 2.223 2.223S90.418 89.818 89.191 89.818zM89.191 73.447c-1.014 0-1.863-0.688-2.127-1.617h-8.262v11.217H55.408l-3.48 3.482c0.194 0.314 0.291 0.678 0.291 1.066 0 1.225-0.994 2.219-2.219 2.219-1.019 0-1.868-0.68-2.123-1.613H12.97c-0.265 0.93-1.114 1.617-2.128 1.617-1.226 0-2.223-0.996-2.223-2.223s0.997-2.223 2.223-2.223c1.014 0 1.863 0.688 2.128 1.617h34.907c0.255-0.934 1.104-1.613 2.123-1.613 0.388 0 0.752 0.096 1.066 0.291l3.833-3.832h22.69V71.83H59.302V60.309h8.234l12.782-12.783c-0.291-0.375-0.461-0.837-0.461-1.347 0-1.03 0.717-1.916 1.674-2.146V28.485c-0.957-0.23-1.674-1.116-1.674-2.146 0-1.031 0.717-1.904 1.674-2.147V12.408c-0.865-0.304-1.49-1.121-1.49-2.089 0-1.226 0.996-2.223 2.223-2.223s2.223 0.997 2.223 2.223c0 1.061-0.746 1.946-1.742 2.167v11.742c0.91 0.279 1.564 1.116 1.564 2.111 0 0.994-0.654 1.843-1.564 2.11v15.62c0.91 0.268 1.564 1.115 1.564 2.11 0 1.225-1.006 2.22-2.23 2.22-0.279 0-0.535-0.048-0.777-0.145L68.033 61.521h-7.52v9.096h26.551C87.328 69.688 88.178 69 89.191 69c1.227 0 2.223 0.998 2.223 2.223C91.414 72.449 90.418 73.447 89.191 73.447z" fill="#f9f6ed" data-fill-palette-color="quaternary"></path></g></svg></g></svg></g><g></g></svg></g></svg></g></svg></g></svg></g><defs></defs></svg><rect width="342.85155851775386" height="342.85155851775386" fill="none" stroke="none" visibility="hidden"></rect></g></svg></g></svg>